<?xml version="1.0" standalone="no"?>
<!DOCTYPE svg PUBLIC "-//W3C//DTD SVG 20010904//EN"
 "http://www.w3.org/TR/2001/REC-SVG-20010904/DTD/svg10.dtd">
<svg version="1.0" xmlns="http://www.w3.org/2000/svg"
 width="1800.000000pt" height="2700.000000pt" viewBox="0 0 1800.000000 2700.000000"
 preserveAspectRatio="xMidYMid meet">
<g transform="translate(0.000000,2700.000000) scale(0.100000,-0.100000)"
fill="#000000" stroke="none">
<path d="M6717 24781 c-26 -10 -53 -23 -59 -29 -7 -7 -17 -12 -23 -12 -7 0
-31 -14 -54 -30 -23 -17 -59 -40 -79 -51 -20 -11 -50 -29 -67 -40 -16 -10 -37
-22 -45 -26 -8 -3 -31 -19 -51 -35 -20 -15 -42 -28 -47 -28 -6 0 -17 -6 -25
-14 -7 -8 -29 -23 -48 -33 -19 -10 -73 -44 -120 -75 -47 -31 -106 -67 -130
-79 -59 -31 -171 -143 -196 -199 -12 -25 -29 -63 -39 -85 -18 -38 -18 -159
-15 -2964 3 -2823 4 -2925 22 -2965 23 -51 51 -83 109 -126 25 -19 60 -47 78
-64 l32 -30 0 -3670 0 -3669 -39 -39 c-70 -68 -159 -185 -182 -237 l-22 -52 7
-2362 c4 -1299 11 -2821 15 -3382 l7 -1020 21 -38 c44 -79 138 -170 358 -347
38 -30 85 -70 106 -88 20 -17 40 -32 45 -32 4 0 19 -11 33 -24 44 -40 188
-134 303 -197 35 -19 105 -40 178 -55 200 -39 2331 -43 2750 -5 63 6 157 11
208 11 129 0 370 27 412 46 121 56 191 108 222 169 58 112 78 219 78 425 0 85
5 184 10 220 5 36 14 170 19 298 6 127 12 236 15 241 3 5 11 139 16 298 6 158
15 349 20 423 5 74 10 198 10 275 1 188 8 219 59 266 22 21 43 48 45 61 3 13
10 142 16 288 6 146 15 315 20 375 5 61 9 160 9 222 1 61 5 145 11 185 5 40
14 159 20 263 6 105 13 213 17 242 6 55 5 55 148 147 22 14 58 38 80 54 22 15
47 31 55 34 28 12 128 97 153 130 57 77 58 90 56 801 l-1 650 43 13 c24 6 69
19 99 28 30 10 73 21 96 26 22 5 51 13 65 18 13 5 51 17 84 27 33 9 75 23 93
31 18 8 45 14 60 14 15 1 38 7 52 15 14 8 41 14 61 15 19 0 44 7 55 15 10 8
31 15 46 15 29 0 120 50 152 83 11 11 28 36 38 56 17 34 18 224 18 4946 0
4646 -1 4913 -17 4959 -23 64 -77 118 -133 134 -25 7 -119 17 -210 22 -91 6
-196 15 -235 20 -38 5 -133 9 -211 10 -123 0 -143 2 -157 18 -15 16 -17 89
-19 723 l-3 706 -28 36 c-16 21 -67 60 -120 91 -51 30 -108 63 -127 75 -19 11
-44 25 -55 31 -11 6 -33 19 -50 30 -16 11 -39 24 -51 29 -11 5 -35 23 -52 41
-28 27 -32 38 -32 84 0 29 -5 78 -11 107 -6 30 -14 92 -19 139 -4 47 -13 121
-19 165 -6 44 -18 143 -26 220 -9 77 -20 160 -26 185 -6 25 -14 99 -19 165 -4
66 -13 133 -19 148 -6 16 -11 57 -11 92 0 59 -2 65 -30 87 -32 25 -35 39 -60
243 -8 69 -18 135 -46 292 -8 45 -14 99 -14 120 0 21 -7 63 -15 93 -8 30 -15
71 -15 90 0 19 -7 76 -15 125 -15 86 -28 166 -60 368 -7 50 -19 124 -25 162
-33 203 -42 266 -50 330 -34 282 -92 399 -231 466 -110 54 -149 58 -619 63
-239 3 -538 10 -665 15 -126 5 -615 10 -1085 9 -791 0 -859 -1 -903 -17z
m1523 -142 c333 -6 835 -14 1116 -18 l511 -7 44 -26 c63 -37 75 -55 88 -133 7
-38 17 -95 23 -125 6 -30 14 -77 18 -105 4 -27 12 -72 18 -100 10 -45 17 -88
52 -310 6 -38 15 -106 20 -149 5 -44 14 -100 19 -125 6 -25 17 -91 26 -146 9
-55 20 -125 26 -155 6 -30 14 -86 19 -125 5 -38 14 -88 19 -110 6 -22 11 -60
11 -84 0 -24 6 -67 14 -95 17 -58 35 -186 42 -297 7 -94 2 -99 -100 -103 -41
-2 -82 -8 -90 -15 -10 -9 -15 -49 -19 -164 -2 -84 -9 -228 -16 -322 -14 -212
-32 -576 -38 -757 -3 -76 -8 -138 -11 -138 -351 -4 -2558 2 -2563 7 -4 4 -9
37 -12 73 -7 116 -28 313 -43 410 -8 52 -14 118 -14 145 0 28 -6 88 -15 135
-8 47 -21 155 -29 240 -31 315 -35 342 -47 355 -6 6 -33 15 -62 20 l-52 10
-17 110 c-9 61 -17 135 -17 165 -1 30 -8 87 -16 125 -8 39 -15 90 -15 115 0
25 -7 77 -15 115 -8 39 -15 92 -15 118 0 26 -6 76 -14 110 -8 34 -20 105 -26
157 -7 52 -16 122 -20 155 -4 33 -12 96 -19 140 -6 44 -18 132 -26 195 -20
147 -50 350 -71 471 -5 33 -13 40 -88 83 -46 25 -88 46 -94 46 -13 0 -42 28
-42 40 0 5 25 26 57 49 l56 40 411 -5 c226 -2 683 -9 1016 -15z m-1570 -174
c19 -14 37 -25 41 -25 4 0 31 -16 60 -36 52 -35 54 -38 67 -102 7 -37 16 -104
21 -150 5 -46 14 -113 20 -150 5 -37 17 -121 26 -187 8 -66 20 -151 26 -190 6
-38 15 -106 19 -150 4 -44 12 -107 18 -140 21 -115 42 -270 42 -305 0 -19 7
-77 15 -130 27 -180 56 -387 59 -425 1 -23 -26 -31 -45 -13 -8 7 -50 38 -94
67 -44 30 -99 67 -121 83 -23 15 -45 28 -49 28 -4 0 -24 14 -45 30 -21 17 -42
30 -46 30 -5 1 -21 11 -36 23 l-28 23 0 864 c-1 476 -1 868 0 873 0 13 15 8
50 -18z m-161 -191 c-1 -87 -2 -467 -3 -843 l-1 -684 -50 -27 c-27 -15 -66
-37 -85 -48 -19 -11 -69 -38 -110 -60 -64 -33 -178 -99 -230 -132 -46 -30 -73
-41 -81 -33 -4 4 -11 353 -14 775 -6 665 -5 771 8 795 8 15 23 45 33 66 17 35
97 94 195 147 43 23 287 190 300 206 7 9 17 11 26 5 12 -6 15 -35 12 -167z
m15 -1723 c-10 -60 -5 -3943 5 -3954 5 -5 26 -7 47 -5 l39 3 -1 1800 c0 990
-2 1892 -3 2005 -2 128 0 205 7 208 5 1 49 -24 98 -56 49 -33 108 -70 131 -83
23 -13 47 -33 52 -44 6 -11 15 -170 21 -354 6 -184 13 -338 15 -342 3 -4 10
-155 16 -335 18 -506 20 -538 31 -551 21 -25 307 -183 333 -183 7 0 18 -7 25
-15 7 -8 21 -15 31 -15 10 0 23 -9 29 -20 7 -13 10 -285 10 -861 -1 -524 3
-846 8 -851 12 -12 94 -6 137 10 17 6 57 18 90 27 33 9 80 23 105 31 25 8 54
14 65 14 11 0 33 7 49 15 25 13 32 13 43 2 11 -10 13 -857 13 -4862 1 -2668 1
-4856 0 -4863 0 -14 -40 -32 -125 -57 -33 -9 -78 -23 -100 -30 -41 -12 -104
-31 -210 -62 -33 -10 -70 -25 -83 -34 l-22 -16 -3 -783 -2 -783 -30 -19 c-16
-10 -37 -20 -45 -24 -8 -3 -22 -9 -30 -14 -55 -32 -344 -170 -356 -170 -4 0
-98 -42 -174 -78 -19 -9 -42 -22 -50 -29 -8 -6 -27 -15 -43 -18 l-27 -7 0
1182 c1 697 -3 1187 -8 1192 -5 5 -27 8 -48 6 l-39 -3 0 -1185 c0 -1165 0
-1185 -19 -1182 -11 2 -33 14 -50 26 -17 13 -51 33 -76 46 -25 12 -52 26 -60
31 -8 5 -37 20 -65 34 -27 14 -57 30 -65 35 -8 5 -22 11 -30 14 -8 3 -22 10
-30 16 -48 31 -156 93 -177 101 l-23 9 0 1343 c0 1268 1 1345 18 1358 19 16
66 38 132 64 71 27 74 29 93 68 17 34 18 194 18 3922 -1 3405 -3 3890 -16
3913 -35 65 -63 82 -133 82 -88 0 -79 -216 -85 2052 l-5 2017 56 32 c32 18 82
46 112 62 30 17 71 40 90 52 19 12 67 39 105 60 83 46 107 59 160 90 21 13 43
21 48 18 5 -3 5 -26 1 -52z m-649 -151 c7 -12 -12 -40 -27 -40 -16 0 -21 32
-7 41 18 12 26 11 34 -1z m1262 -90 c61 0 56 11 73 -160 6 -63 18 -173 26
-245 8 -71 14 -152 14 -180 1 -27 7 -79 15 -115 8 -36 14 -99 15 -142 0 -42 7
-112 15 -155 8 -43 15 -109 16 -148 0 -72 28 -250 42 -272 4 -6 29 -22 55 -35
26 -13 49 -26 52 -29 3 -3 19 -12 35 -21 17 -8 55 -28 85 -45 30 -16 67 -33
82 -37 31 -7 55 -43 40 -58 -7 -7 -27 -6 -62 1 -28 6 -77 11 -109 11 -43 0
-65 5 -84 20 -14 11 -28 20 -31 20 -3 0 -34 18 -69 39 -36 22 -89 51 -118 66
-108 54 -135 73 -149 109 -5 15 -10 89 -10 164 0 75 -5 180 -10 232 -6 52 -15
264 -21 470 -5 206 -13 402 -18 435 -7 50 -6 62 8 73 9 7 25 11 36 8 11 -3 44
-6 72 -6z m3242 -34 c5 -6 14 -74 19 -151 6 -77 16 -171 21 -210 6 -38 17
-131 26 -205 8 -74 20 -173 25 -220 6 -47 15 -125 20 -173 5 -48 11 -91 14
-95 2 -4 9 -70 16 -147 6 -77 16 -152 21 -167 12 -30 37 -49 115 -89 28 -15
69 -35 90 -47 46 -24 110 -52 118 -52 12 0 46 -35 46 -48 0 -12 -24 -13 -137
-7 -144 8 -156 11 -213 55 -37 29 -97 65 -170 102 -92 47 -94 53 -110 338 -4
85 -13 168 -19 183 -6 16 -11 76 -12 135 0 59 -5 148 -9 197 -5 50 -13 180
-19 290 -6 110 -16 224 -21 254 -5 29 -7 57 -4 62 8 13 172 8 183 -5z m-197
-1335 c22 -84 44 -128 70 -137 9 -3 20 -15 24 -27 4 -12 20 -34 36 -49 l30
-28 -26 -12 c-20 -9 -29 -9 -38 0 -7 7 -22 12 -34 12 -36 0 -92 28 -99 50 -9
28 -64 90 -80 90 -7 0 -20 11 -29 26 -14 21 -15 31 -6 59 6 19 19 37 29 40 10
3 29 17 42 31 40 42 59 29 81 -55z m-1965 -36 c15 -1 37 -15 51 -31 13 -16 38
-46 55 -67 37 -42 61 -94 48 -101 -11 -7 -179 -10 -368 -7 -84 2 -157 0 -162
-4 -15 -9 -51 13 -51 31 0 10 -7 13 -25 8 -20 -5 -25 -3 -25 14 0 19 -61 82
-80 82 -5 0 -10 10 -12 23 -2 17 -9 21 -30 19 -19 -2 -28 2 -28 11 0 21 73 27
332 27 147 0 229 4 233 10 5 8 11 7 20 0 8 -7 26 -13 42 -15z m335 5 c32 0 62
-5 70 -13 17 -16 124 -87 132 -87 4 0 25 -13 48 -30 22 -16 46 -30 52 -30 6 0
24 -11 40 -23 24 -20 27 -27 18 -43 -10 -17 -20 -19 -114 -16 -112 4 -100 -1
-241 94 -46 31 -112 71 -146 88 -33 17 -61 33 -61 35 0 2 3 11 7 20 5 15 16
17 72 11 36 -3 92 -6 123 -6z m873 -11 c-4 -5 3 -9 13 -9 13 0 22 -9 26 -25 3
-13 20 -35 36 -47 17 -12 30 -30 30 -39 0 -10 6 -22 14 -26 7 -4 16 -18 20
-29 9 -31 -18 -34 -286 -34 l-229 0 -53 53 c-29 29 -65 71 -81 95 -46 70 -43
71 249 74 138 2 254 2 259 0 4 -2 5 -8 2 -13z m285 11 c52 0 82 -5 95 -15 104
-80 236 -165 255 -165 6 0 16 -12 22 -26 17 -37 3 -41 -110 -38 -53 2 -100 4
-103 4 -4 0 -29 18 -57 40 -27 22 -52 40 -55 40 -3 0 -31 18 -63 39 -33 22
-83 51 -111 66 -29 14 -53 30 -53 35 0 18 35 30 70 25 19 -2 69 -5 110 -5z
m1340 -242 c0 -15 -28 -9 -34 8 -11 30 -6 37 14 19 11 -10 20 -22 20 -27z
m-990 -101 l965 -2 3 -717 2 -717 -1589 2 c-1442 1 -1592 0 -1627 -15 -22 -9
-73 -26 -114 -39 -41 -12 -80 -26 -85 -30 -6 -5 -30 -11 -53 -15 l-42 -7 0
770 c0 423 2 772 4 774 2 2 357 3 788 1 430 -1 1217 -3 1748 -5z m1963 -1537
c6 -6 15 -2582 23 -6677 l7 -3093 -2004 -2 c-1102 -2 -2008 -2 -2014 0 -7 1
-9 1638 -8 4890 2 2688 3 4887 3 4887 0 0 897 0 1994 0 1097 0 1996 -2 1999
-5z m-6129 -862 c11 -16 18 -19 28 -10 18 15 43 -1 35 -22 -5 -11 1 -19 16
-25 35 -14 87 -67 87 -89 0 -28 -10 -52 -21 -52 -6 0 -19 16 -31 35 -15 26
-26 35 -42 33 -17 -2 -20 2 -18 23 2 21 -1 26 -18 25 -19 -1 -30 13 -62 76
-17 35 2 40 26 6z m152 -7732 c-3 -14 -2 -28 4 -31 18 -11 10 -25 -24 -42 -37
-17 -66 -12 -66 11 0 16 67 86 83 86 5 0 6 -11 3 -24z m-98 -82 c28 -8 30 -44
2 -44 -10 0 -24 9 -30 19 -17 33 -14 36 28 25z m2077 -1209 c0 -5 -17 -11 -37
-13 -36 -3 -47 5 -31 22 11 10 68 3 68 -9z m3755 -11 c0 -8 10 -14 26 -14 44
0 21 -24 -32 -34 -27 -4 -80 -19 -119 -31 -38 -13 -104 -33 -145 -45 -41 -12
-79 -26 -84 -31 -6 -5 -22 -9 -37 -9 -39 0 -91 -20 -119 -46 -31 -29 -117 -45
-124 -23 -23 82 -35 106 -73 150 -47 55 -52 73 -25 84 9 3 169 5 355 4 236 -1
341 1 349 9 13 13 28 6 28 -14z m-752 -863 l2 -721 -647 0 c-357 0 -947 -4
-1313 -8 -366 -4 -870 -7 -1120 -7 l-455 0 -3 727 -2 728 302 2 c167 2 962 2
1768 2 l1465 -2 3 -721z m52 -776 c-7 -8 -10 -24 -7 -35 6 -24 -15 -27 -33 -5
-14 16 -6 35 16 35 8 0 14 5 14 10 0 6 5 10 11 10 8 0 8 -5 -1 -15z m-726 -71
l18 -26 -53 -48 c-30 -27 -59 -49 -65 -50 -20 0 -73 -126 -79 -186 -10 -96
-15 -124 -25 -124 -11 0 -36 19 -83 63 -30 27 -57 35 -57 17 0 -5 -4 -10 -10
-10 -5 0 -10 6 -10 13 0 8 -9 22 -20 32 -11 10 -20 22 -20 27 0 14 82 88 96
88 7 0 15 9 19 19 3 11 17 26 30 35 14 9 25 23 25 31 0 8 6 15 13 15 8 0 21 8
30 18 13 14 14 21 5 30 -18 18 6 40 25 23 12 -9 16 -8 21 4 3 8 16 15 28 15
13 0 34 9 48 20 32 25 41 25 64 -6z m564 14 c20 -20 14 -27 -40 -54 -29 -14
-78 -41 -108 -59 -30 -19 -62 -38 -70 -42 -8 -5 -45 -28 -82 -52 l-68 -43 0
-87 c-1 -47 -5 -133 -11 -191 -5 -58 -14 -179 -18 -270 -14 -248 -30 -512 -46
-740 -9 -113 -15 -235 -15 -272 l0 -68 -92 0 -91 0 6 799 c4 608 8 805 18 823
16 30 51 68 64 68 12 0 139 82 164 105 82 76 79 75 228 84 76 4 140 9 144 10
3 0 10 -4 17 -11z m-3243 -8 c35 -13 23 -29 -48 -63 -66 -31 -310 -176 -318
-189 -6 -9 -12 -99 -29 -418 -12 -220 -28 -456 -41 -590 -6 -63 -15 -180 -20
-260 -5 -80 -12 -194 -15 -253 -8 -123 -4 -119 -106 -131 -52 -7 -58 -6 -58
11 0 10 0 384 0 832 0 891 -4 823 55 851 11 6 34 19 50 30 17 11 39 24 50 30
11 6 34 19 50 30 17 10 55 31 85 46 30 15 68 36 85 48 24 17 50 22 130 27 55
3 101 6 102 7 1 1 14 -3 28 -8z m1240 0 c33 -13 28 -20 -43 -67 -31 -21 -64
-44 -72 -50 -8 -7 -36 -28 -62 -45 -25 -18 -68 -51 -94 -73 l-47 -40 -116 -5
c-64 -3 -124 -4 -133 -1 -25 5 -22 38 4 47 38 12 230 146 293 205 28 26 37 28
130 32 55 1 103 4 107 5 4 1 19 -2 33 -8z m1202 -6 c2 -6 -45 -46 -104 -90
-59 -43 -135 -102 -169 -130 l-61 -52 -121 -4 c-129 -3 -159 5 -132 37 7 8 17
15 22 15 9 0 97 59 178 119 19 14 55 44 78 66 43 39 46 40 135 46 125 8 170 6
174 -7z m-894 -11 c308 13 342 13 370 0 33 -16 34 -28 5 -44 -33 -17 -76 -68
-80 -93 -2 -13 -10 -21 -23 -21 -15 0 -20 -7 -20 -30 -1 -17 -4 -36 -9 -43 -5
-8 -1 -19 10 -28 19 -14 19 -14 0 -28 -10 -8 -15 -19 -12 -25 10 -15 -13 -24
-29 -11 -8 6 -19 9 -25 5 -6 -3 -144 -6 -307 -6 -276 0 -299 2 -323 19 -30 23
-32 44 -4 52 26 7 42 20 130 106 51 50 73 79 76 100 3 25 8 29 36 32 18 2 36
10 39 17 4 11 10 12 25 4 12 -7 65 -9 141 -6z m-1339 0 c4 -4 124 -6 267 -5
240 3 260 2 266 -14 4 -11 2 -19 -6 -22 -7 -2 -16 -9 -21 -16 -5 -6 -24 -29
-43 -51 -18 -22 -46 -61 -61 -88 -23 -40 -25 -48 -11 -53 21 -9 18 -25 -10
-52 l-24 -23 -365 0 c-307 0 -368 -2 -380 -14 -19 -19 -36 -19 -36 0 0 7 -7
18 -16 23 -9 5 -14 14 -10 21 9 14 36 15 36 1 0 -5 8 -10 17 -10 15 0 15 1 -1
13 -17 12 -15 16 31 50 27 20 62 41 77 47 17 6 26 16 24 27 -2 13 3 18 20 17
12 0 22 5 22 13 0 7 7 13 15 13 9 0 20 11 25 26 16 41 70 84 107 84 17 0 35 5
38 10 7 12 28 13 39 3z m-2010 -37 c18 -15 24 -26 17 -31 -11 -6 -60 32 -61
48 0 12 14 7 44 -17z m5136 15 c0 -12 -20 -25 -27 -18 -7 7 6 27 18 27 5 0 9
-4 9 -9z m-5028 -84 c34 -32 67 -50 465 -256 34 -18 65 -36 68 -41 3 -6 5
-324 3 -707 -2 -384 -2 -773 0 -865 2 -109 -1 -168 -7 -168 -10 0 -39 15 -149
77 -32 17 -93 50 -137 73 -44 23 -107 57 -140 75 -33 19 -75 41 -93 49 -18 8
-34 21 -36 28 -7 22 -23 1679 -17 1741 1 11 28 8 43 -6z m954 -394 c-4 -137
-9 -522 -12 -858 -2 -335 -4 -616 -4 -622 0 -7 -9 -13 -19 -13 -11 0 -22 -4
-26 -9 -3 -6 -29 -21 -58 -35 -28 -13 -69 -36 -90 -50 -21 -14 -42 -26 -46
-26 -5 0 -14 -7 -21 -15 -7 -8 -20 -15 -29 -15 -15 0 -16 72 -13 867 1 478 4
873 6 879 3 7 29 24 58 38 29 15 60 30 68 35 83 46 140 70 164 70 l29 1 -7
-247z m1834 57 c1154 0 1269 -1 1281 -16 8 -10 14 -52 17 -118 2 -55 8 -137
13 -181 5 -44 14 -160 19 -258 5 -98 11 -190 14 -205 3 -15 10 -112 16 -217 6
-104 15 -220 20 -257 6 -37 10 -118 11 -181 0 -62 4 -119 9 -127 6 -10 35 -14
112 -14 l103 -1 -3 -25 c-1 -14 -7 -99 -12 -190 -5 -91 -14 -196 -19 -235 -6
-38 -11 -115 -11 -170 0 -55 -7 -161 -15 -235 -8 -74 -15 -189 -15 -255 0 -66
-5 -138 -10 -160 -5 -22 -14 -155 -20 -295 -6 -140 -15 -300 -20 -355 -5 -55
-9 -157 -10 -228 l0 -128 -43 -42 c-28 -28 -63 -50 -102 -64 -56 -20 -84 -22
-435 -27 -206 -3 -530 -10 -720 -16 -195 -6 -744 -10 -1265 -8 -857 3 -920 4
-923 20 -2 9 9 27 25 40 15 13 58 52 95 87 l68 64 0 61 c0 34 7 92 15 131 8
38 15 103 15 144 0 41 7 131 15 200 14 126 29 310 45 576 5 77 14 164 19 194
6 29 11 81 11 115 0 33 6 108 15 166 14 102 30 302 44 540 l6 115 78 6 c43 4
84 12 90 18 6 6 14 57 19 113 4 57 13 159 18 228 6 69 14 150 19 180 5 30 10
84 10 120 1 36 5 80 11 99 5 18 12 79 15 135 3 55 12 160 20 231 8 72 19 189
23 260 9 136 22 181 49 171 8 -4 586 -6 1283 -6z m-2890 -1480 c0 -5 -7 -10
-15 -10 -8 0 -15 5 -15 10 0 6 7 10 15 10 8 0 15 -4 15 -10z m4620 -34 c0 -29
-12 -39 -34 -30 -19 7 -21 25 -4 42 20 20 38 14 38 -12z m-4507 -57 c12 -7 24
-15 27 -19 3 -4 68 -40 145 -80 77 -40 147 -77 155 -81 8 -4 52 -25 97 -46 46
-21 84 -42 85 -48 5 -16 -9 -1250 -17 -1617 -6 -258 -11 -338 -21 -338 -6 0
-27 15 -46 33 -37 34 -142 123 -204 172 -21 17 -54 44 -73 61 -20 16 -60 47
-88 68 -102 73 -92 -33 -95 999 -2 499 1 907 5 907 5 0 18 -5 30 -11z m1044
-81 c-8 -71 -26 -252 -42 -428 -9 -91 -20 -214 -26 -275 -6 -60 -14 -162 -19
-225 -8 -120 -20 -257 -46 -520 -8 -85 -14 -180 -14 -210 0 -30 -7 -109 -15
-175 -8 -66 -15 -149 -15 -185 l0 -65 -85 -84 c-47 -46 -85 -87 -85 -92 0 -16
-38 -10 -72 11 l-32 19 2 453 c3 618 22 1570 32 1588 4 8 39 31 77 50 65 33
157 86 212 122 14 10 33 21 41 25 8 3 28 17 44 30 37 31 50 19 43 -39z m-1107
-1863 c0 -8 -7 -15 -15 -15 -8 0 -15 -4 -15 -10 0 -5 -5 -10 -10 -10 -6 0 -3
11 6 25 18 28 34 33 34 10z m110 -93 c0 -14 -23 -32 -42 -32 -25 0 -23 15 5
28 27 13 37 14 37 4z m83 -92 c4 -18 2 -20 -16 -14 -12 3 -29 12 -37 20 -12
12 -10 14 17 14 22 0 32 -5 36 -20z m103 -66 c31 -24 47 -64 25 -64 -10 0 -91
75 -91 84 0 14 34 4 66 -20z m89 -45 c4 -5 18 -14 31 -19 31 -12 32 -40 2 -40
-26 0 -73 44 -63 60 8 13 22 13 30 -1z m109 -84 c14 -10 32 -13 59 -8 37 6 40
5 35 -15 -4 -12 -3 -22 1 -22 4 0 20 -13 37 -28 47 -45 99 -72 139 -72 28 0
38 -5 42 -19 2 -10 18 -28 34 -40 16 -12 27 -27 23 -33 -10 -15 -125 0 -147
19 -9 9 -25 21 -35 27 -10 6 -34 21 -53 33 -19 13 -42 23 -53 23 -16 0 -46 20
-108 75 -10 8 -22 15 -27 15 -15 0 -33 29 -27 45 7 19 55 19 80 0z m3415 -218
c6 -8 23 -12 40 -9 16 2 32 -1 35 -7 5 -8 -25 -11 -101 -11 -59 0 -142 -5
-183 -11 -41 -6 -133 -12 -205 -14 -71 -2 -191 -6 -265 -9 -469 -21 -1242 -28
-1588 -13 -212 8 -273 18 -241 37 11 8 705 16 874 11 39 -1 92 3 120 8 33 6
54 6 62 -1 14 -11 312 -3 413 11 35 5 68 7 72 5 12 -8 664 -7 688 1 11 4 26 2
33 -3 12 -9 144 2 155 13 11 11 80 4 91 -8z m-2975 -22 c3 -9 -1 -18 -10 -22
-19 -7 -39 11 -30 26 10 16 33 13 40 -4z m196 -25 c0 -5 -25 -10 -56 -10 -34
0 -53 4 -49 10 3 6 28 10 56 10 27 0 49 -4 49 -10z m230 0 c-17 -11 -180 -14
-180 -2 0 4 44 8 98 9 66 2 92 0 82 -7z"/>
<path d="M7181 24392 c-6 -11 -7 -32 -2 -48 l7 -29 1310 0 1309 0 0 45 0 45
-1307 3 c-1264 2 -1308 1 -1317 -16z"/>
<path d="M8570 22770 c-4 -8 -4 -125 0 -260 4 -135 5 -248 3 -252 -2 -5 -73
-8 -157 -8 -143 0 -155 -2 -187 -23 -54 -36 -60 -57 -57 -201 l3 -128 38 -33
c47 -41 69 -45 227 -45 102 0 130 -3 140 -15 10 -12 12 -65 8 -220 -4 -167 -2
-205 9 -206 61 -3 175 -1 179 4 3 3 7 104 7 224 l2 218 150 0 c163 0 174 3
221 64 27 36 34 242 10 293 -30 63 -60 72 -233 70 l-153 -2 -2 266 -3 266 -98
2 c-79 1 -101 -2 -107 -14z m416 -639 c34 -3 47 -134 17 -169 -17 -20 -28 -21
-328 -23 -170 -1 -318 2 -327 6 -15 6 -18 21 -18 91 0 62 4 85 14 91 11 6 564
9 642 4z"/>
<path d="M7282 22648 c-13 -13 -16 -56 -6 -82 5 -14 55 -16 455 -16 l449 0 15
24 c15 22 15 27 0 55 l-16 31 -442 0 c-331 0 -446 -3 -455 -12z"/>
<path d="M8932 22648 c-16 -16 -15 -73 2 -87 9 -8 164 -10 557 -9 l544 3 0 50
0 50 -545 3 c-416 2 -549 -1 -558 -10z"/>
<path d="M6200 20772 c-22 -18 -45 -68 -60 -132 -4 -19 -12 -55 -18 -80 -42
-178 -53 -284 -60 -585 -7 -265 1 -408 29 -550 5 -27 14 -73 19 -102 21 -110
68 -183 118 -183 50 0 99 70 122 175 5 22 13 58 19 80 42 172 46 222 45 595
-1 259 -5 378 -14 410 -7 25 -16 72 -21 105 -9 69 -25 132 -49 193 -34 86 -82
113 -130 74z m77 -222 c37 -220 43 -261 45 -330 l3 -75 -58 4 c-53 3 -62 0
-88 -25 -25 -24 -29 -25 -35 -10 -4 10 0 50 9 89 9 40 18 99 22 132 8 90 41
269 52 288 3 4 12 7 21 5 11 -2 19 -24 29 -78z m13 -570 c18 -43 -1 -85 -33
-76 -12 3 -30 6 -39 6 -13 0 -18 8 -18 31 0 46 16 69 49 69 22 0 31 -7 41 -30z
m-98 -190 c35 -21 83 -26 93 -10 3 6 15 10 27 10 19 0 20 -4 13 -57 -4 -32
-16 -110 -26 -173 -11 -63 -24 -144 -30 -180 -11 -73 -21 -90 -47 -74 -13 8
-22 42 -35 130 -10 65 -25 151 -32 189 -8 39 -15 88 -16 110 -2 85 0 88 53 55z"/>
<path d="M8128 20390 c-20 -17 -44 -49 -53 -74 -16 -41 -16 -49 -1 -108 9 -35
16 -90 16 -121 l0 -57 -65 -31 c-61 -30 -175 -121 -175 -139 0 -5 -11 -26 -25
-46 -13 -20 -27 -52 -30 -73 -3 -20 -11 -56 -16 -80 -7 -31 -7 -66 2 -115 27
-162 115 -276 259 -334 24 -10 80 -15 176 -16 137 -1 142 0 200 28 32 17 74
41 92 54 30 23 92 104 92 121 0 4 5 12 11 18 43 43 67 273 34 317 -8 11 -15
30 -15 42 0 12 -7 27 -15 34 -8 7 -15 19 -15 26 0 22 -120 137 -175 167 -41
24 -66 29 -147 34 -111 7 -103 0 -112 103 -3 30 -8 75 -12 99 -6 39 -4 46 17
62 35 27 57 23 79 -13 15 -25 19 -43 14 -75 -8 -55 1 -80 36 -98 56 -29 59
-25 53 78 -6 122 -16 150 -67 192 -57 46 -106 48 -158 5z m290 -528 c3 -9 -3
-13 -19 -10 -12 1 -24 9 -27 16 -3 9 3 13 19 10 12 -1 24 -9 27 -16z m-200
-32 c51 -12 90 -46 137 -116 31 -46 35 -60 35 -118 0 -35 -4 -67 -9 -71 -5 -3
-12 -18 -16 -34 -14 -66 -132 -137 -208 -126 -104 16 -217 138 -217 236 0 97
80 209 163 227 56 13 65 13 115 2z m300 -224 c3 -20 0 -27 -10 -24 -7 3 -14
17 -16 32 -3 20 0 27 10 24 7 -3 14 -17 16 -32z"/>
<path d="M8140 19780 c-10 -6 -17 -32 -20 -72 l-5 -63 -35 -3 c-44 -4 -60 -18
-60 -49 0 -25 4 -28 63 -38 l37 -6 0 -55 c0 -49 2 -55 26 -64 46 -18 64 2 64
70 l0 59 55 6 c58 8 81 28 69 59 -5 12 -20 16 -58 16 -29 0 -57 5 -64 12 -7 7
-12 32 -12 56 0 69 -22 96 -60 72z"/>
<path d="M9213 20391 c-27 -20 -47 -45 -58 -74 -16 -41 -16 -50 -2 -99 9 -29
17 -82 19 -118 l3 -65 -78 -40 c-203 -106 -276 -263 -231 -505 17 -93 106
-206 194 -247 155 -71 341 -68 460 8 48 30 115 94 134 127 62 112 59 100 60
232 1 104 -2 133 -19 170 -36 83 -104 160 -190 218 -32 21 -60 28 -140 37
l-100 10 -5 77 c-4 43 -11 83 -18 90 -22 22 -14 74 13 92 33 22 48 20 73 -7
16 -17 22 -37 24 -92 3 -69 3 -70 40 -90 20 -11 40 -16 44 -12 15 15 3 177
-16 222 -39 91 -132 120 -207 66z m81 -555 c66 -20 107 -55 140 -119 38 -75
44 -127 20 -180 -10 -23 -24 -48 -31 -55 -7 -7 -13 -19 -13 -27 0 -27 -113
-85 -166 -85 -19 0 -42 4 -52 9 -9 5 -37 19 -62 31 -49 24 -60 36 -92 100 -59
117 4 270 133 320 56 23 66 23 123 6z m266 -92 c0 -17 -22 -14 -28 4 -2 7 3
12 12 12 9 0 16 -7 16 -16z"/>
<path d="M9184 19755 c-11 -16 -14 -36 -10 -55 8 -40 -2 -60 -29 -60 -27 0
-49 -24 -42 -44 3 -8 18 -16 34 -18 26 -3 28 -7 31 -53 4 -59 25 -87 61 -83
24 3 26 8 31 63 l5 60 35 3 c83 6 100 12 100 36 0 36 -23 48 -82 44 l-53 -3
-3 45 c-4 76 -10 90 -37 90 -15 0 -31 -10 -41 -25z"/>
<path d="M10259 20381 c-42 -37 -44 -42 -44 -92 0 -30 4 -98 8 -152 l9 -97
-39 -16 c-92 -39 -116 -53 -160 -95 -57 -56 -100 -121 -123 -187 -32 -92 -22
-234 21 -312 5 -8 16 -30 25 -48 19 -37 100 -114 147 -137 99 -51 314 -68 410
-33 123 46 224 153 261 278 29 98 14 262 -30 322 -5 7 -16 26 -24 41 -23 45
-105 121 -162 149 -53 27 -86 35 -188 47 l-55 6 -8 95 c-11 141 -11 143 13
162 27 22 29 22 59 -1 21 -16 24 -26 22 -80 -1 -68 13 -101 54 -119 35 -16 40
-2 36 113 -2 88 -6 104 -27 133 -32 41 -73 62 -122 62 -32 0 -48 -8 -83 -39z
m297 -528 c36 -27 35 -36 -4 -48 -20 -6 -22 -4 -17 18 5 17 2 26 -9 30 -15 6
-23 27 -10 27 3 0 21 -12 40 -27z m-204 -29 c75 -13 168 -137 168 -226 0 -83
-74 -179 -158 -203 -51 -16 -152 -3 -169 21 -17 23 -17 28 7 49 11 10 20 28
20 39 0 45 14 51 110 51 79 0 94 3 106 19 21 29 17 64 -8 77 -14 7 -49 10
-100 6 -45 -3 -93 0 -114 6 -54 16 -64 -3 -57 -108 3 -45 2 -85 -3 -88 -15 -9
-51 27 -68 68 -25 59 -20 122 13 180 59 102 123 130 253 109z m308 -179 c0
-19 -4 -35 -10 -35 -5 0 -10 16 -10 35 0 19 5 35 10 35 6 0 10 -16 10 -35z
m-29 -88 c-8 -8 -11 -5 -11 9 0 27 14 41 18 19 2 -9 -1 -22 -7 -28z m-1 -75
c0 -13 -12 -22 -22 -16 -10 6 -1 24 13 24 5 0 9 -4 9 -8z"/>
<path d="M8203 18802 l-21 -29 1 -4654 c2 -3831 5 -4658 15 -4677 8 -13 32
-32 55 -43 41 -18 86 -19 1807 -12 1884 6 1814 4 1841 54 14 26 3 7079 -13
7869 -5 283 -9 728 -9 988 l1 474 -28 28 -28 28 -1800 1 -1800 2 -21 -29z
m3506 -113 c26 -8 42 -19 45 -33 8 -27 7 -689 -1 -739 -12 -76 85 -71 -1323
-69 -1309 2 -2042 8 -2071 17 -10 3 -20 1 -24 -5 -20 -32 -24 19 -20 213 2
117 0 286 -4 377 -4 91 -4 169 1 175 4 5 8 19 8 31 0 27 11 35 60 45 63 13
3285 1 3329 -12z m101 -969 c13 0 15 -140 15 -1197 0 -659 4 -2507 9 -4108 9
-2886 9 -2910 -11 -2927 -18 -17 -119 -18 -1773 -18 -1084 0 -1757 3 -1763 9
-10 10 -23 8212 -13 8238 5 13 222 14 1763 8 967 -3 1765 -6 1773 -5z"/>
<path d="M8920 18559 c-19 -10 -43 -16 -52 -13 -10 3 -18 1 -18 -5 0 -18 -38
-13 -49 6 -7 13 -24 18 -65 19 -31 1 -56 -1 -56 -5 0 -3 -20 -5 -44 -3 -34 3
-52 -2 -83 -22 -45 -30 -113 -108 -113 -130 0 -8 -5 -18 -11 -22 -6 -3 -8 -17
-5 -30 4 -14 2 -24 -4 -24 -16 0 -12 -30 5 -36 18 -7 20 -31 3 -37 -10 -3 -10
-9 -2 -24 7 -11 10 -31 7 -45 -4 -20 1 -30 21 -43 14 -10 26 -25 26 -34 0 -43
139 -127 191 -116 18 4 36 2 44 -5 8 -6 19 -9 26 -5 6 4 34 9 61 10 29 2 57
10 66 19 14 14 17 14 27 0 7 -10 33 -17 70 -20 85 -7 88 -7 215 2 63 4 147 8
187 8 59 1 75 5 86 20 16 22 47 16 47 -10 0 -26 76 -12 110 21 30 28 50 26 80
-9 9 -12 29 -15 76 -14 36 1 69 -3 77 -10 8 -7 25 -12 38 -11 13 1 51 1 84 0
36 0 84 8 123 21 56 19 64 19 75 5 18 -24 85 -39 111 -25 12 7 35 13 52 13 16
1 45 12 62 25 l33 24 42 -21 c23 -12 56 -25 72 -29 45 -11 168 -4 180 10 11
13 53 42 94 64 21 11 26 10 34 -4 22 -39 47 -54 90 -54 31 0 49 6 62 20 25 27
65 25 110 -6 33 -22 44 -24 90 -19 32 4 55 3 59 -3 4 -7 49 -9 124 -6 110 5
119 7 152 33 19 15 45 47 57 71 21 38 23 57 23 171 0 70 -5 140 -11 156 -12
33 -67 93 -86 93 -7 0 -20 9 -30 19 -16 17 -24 19 -63 10 -25 -6 -52 -16 -60
-23 -19 -16 -80 -29 -80 -16 0 13 -59 40 -76 33 -7 -3 -14 0 -14 7 0 8 -8 10
-27 5 -16 -4 -38 -7 -50 -7 -12 1 -34 -3 -47 -8 -20 -7 -27 -6 -35 8 -9 15
-60 19 -158 11 -10 -1 -26 1 -35 6 -13 5 -18 3 -18 -7 0 -11 -12 -15 -47 -13
-27 0 -56 5 -66 9 -10 5 -45 3 -80 -3 -34 -7 -80 -13 -102 -15 -22 -1 -53 -10
-69 -21 -28 -19 -29 -19 -71 4 -64 34 -172 30 -246 -9 -18 -9 -77 7 -103 29
-13 11 -22 11 -41 3 -14 -6 -38 -9 -55 -6 -16 4 -36 2 -42 -3 -27 -22 -65 -22
-103 -3 -28 15 -42 17 -52 9 -7 -7 -27 -9 -47 -5 -20 4 -37 2 -41 -4 -8 -13
-45 -13 -45 0 0 6 -15 10 -33 10 -18 0 -38 5 -44 11 -8 8 -19 7 -40 -4 -15 -9
-39 -21 -53 -27 -13 -6 -28 -16 -31 -22 -5 -8 -20 0 -43 20 -36 31 -39 32
-129 31 -95 -1 -122 1 -170 15 -18 5 -32 4 -41 -4 -11 -8 -20 -8 -35 -1 -24
14 -28 13 -71 -10z m-96 -105 c20 -20 20 -27 -3 -55 -17 -21 -22 -22 -45 -11
-15 7 -47 12 -70 12 -35 0 -51 -6 -75 -29 -28 -26 -31 -35 -31 -85 0 -47 4
-60 28 -86 22 -24 38 -31 83 -36 63 -7 73 2 62 56 -5 27 -9 30 -44 30 -38 0
-39 1 -39 35 l0 36 73 -3 72 -3 3 -101 3 -101 -64 -16 c-55 -14 -69 -15 -116
-2 -175 46 -204 276 -46 363 32 18 190 15 209 -4z m331 -19 l0 -30 -82 -3 -82
-3 -6 -30 c-10 -45 5 -54 84 -50 63 2 70 1 76 -19 12 -39 -12 -53 -81 -47 -68
7 -84 -2 -84 -44 0 -42 21 -52 94 -45 52 6 66 4 80 -9 9 -9 16 -23 16 -31 0
-27 -42 -34 -155 -27 l-110 8 -3 170 c-1 93 0 175 3 182 3 11 33 13 127 11
l123 -3 0 -30z m173 -10 c8 -22 24 -74 36 -114 13 -41 27 -76 32 -78 11 -4 44
84 44 115 0 12 4 23 9 26 5 3 12 22 15 41 4 19 15 39 26 45 26 14 76 13 88 -2
5 -8 10 -88 11 -184 2 -170 2 -172 -21 -177 -12 -4 -33 -4 -46 0 -24 6 -24 7
-17 98 5 66 3 95 -5 100 -6 4 -13 5 -15 3 -2 -1 -14 -46 -28 -98 l-24 -95 -38
0 -38 0 -19 80 c-10 44 -21 91 -24 104 -10 48 -23 4 -26 -89 l-3 -95 -40 0
-40 0 -1 165 c-1 91 3 173 8 183 7 14 19 17 56 15 45 -3 48 -5 60 -43z m693
28 c30 -12 45 -25 55 -50 23 -53 4 -105 -62 -170 -30 -30 -52 -59 -48 -64 3
-6 28 -9 54 -8 49 3 80 -12 80 -37 0 -7 -8 -17 -17 -22 -25 -13 -243 -2 -244
12 -3 29 9 46 87 122 62 60 84 89 84 107 0 50 -53 73 -94 42 -11 -8 -28 -15
-37 -15 -44 0 -34 59 13 82 43 22 78 22 129 1z m296 4 c105 -59 112 -285 11
-347 -100 -61 -198 19 -198 161 0 78 24 135 71 172 37 29 80 34 116 14z m415
-4 c17 -15 19 -15 37 1 16 14 39 16 167 14 l149 -3 0 -30 c0 -29 -2 -30 -55
-35 l-55 -5 3 -142 c2 -134 2 -143 -18 -153 -15 -8 -27 -8 -48 2 -30 15 -30
13 -22 193 l5 100 -75 7 c-62 5 -76 4 -86 -10 -11 -14 -16 -15 -33 -4 -12 6
-43 12 -70 12 -40 0 -54 -5 -80 -29 -28 -26 -31 -35 -31 -88 1 -97 59 -138
161 -112 59 15 76 5 62 -36 -14 -42 -80 -61 -152 -44 -120 29 -186 140 -146
247 21 55 37 76 85 108 45 29 172 34 202 7z m520 -53 c11 -36 28 -89 37 -117
9 -29 20 -53 26 -54 10 -1 26 44 62 171 l19 65 55 0 54 0 3 -178 2 -177 -24
-10 c-13 -5 -34 -6 -45 -3 -21 5 -22 11 -20 94 3 110 -11 135 -31 57 -13 -49
-32 -121 -36 -136 -3 -9 -17 -12 -41 -10 -32 3 -38 7 -45 33 -4 17 -12 48 -17
70 -6 22 -13 53 -16 68 -3 16 -11 27 -18 24 -8 -3 -12 -33 -12 -98 l0 -94 -42
-3 -43 -3 0 179 c0 98 3 182 7 186 4 4 29 6 56 4 l49 -3 20 -65z m-1464 -118
l2 -172 -27 -11 c-52 -20 -58 -6 -58 137 l0 129 -28 3 c-80 9 -5 96 78 89 l30
-2 3 -173z m997 -1 c3 -5 1 -13 -5 -16 -15 -9 -43 3 -35 15 8 13 32 13 40 1z"/>
<path d="M10233 18388 c-42 -53 -34 -192 12 -222 21 -14 26 -14 47 3 20 17 23
27 23 104 0 70 -3 89 -19 106 -21 24 -49 27 -63 9z"/>
<path d="M10048 17603 c-1053 -3 -1078 -4 -1088 -22 -10 -20 -6 -1083 5 -1101
3 -4 7 -455 10 -1002 6 -1228 13 -1710 24 -1721 31 -31 32 36 27 1531 -4 823
-5 1558 -4 1632 1 74 1 149 0 165 -1 17 -3 125 -5 240 l-2 210 1042 0 c702 0
1045 -3 1052 -10 6 -6 11 -52 12 -103 1 -51 5 -94 9 -97 13 -8 16 14 19 105 1
47 4 97 7 112 5 27 -10 70 -24 66 -4 -2 -492 -4 -1084 -5z"/>
<path d="M9975 17288 c-17 -57 -24 -94 -29 -163 -4 -44 -11 -93 -15 -110 -5
-16 -12 -67 -15 -112 l-6 -83 44 0 c51 0 56 7 56 86 0 51 1 54 25 54 16 0 28
-7 31 -17 29 -92 57 -124 108 -126 43 -1 54 8 39 31 -26 37 -103 165 -103 170
0 4 25 32 56 63 31 32 53 62 50 68 -10 16 -72 14 -88 -3 -7 -8 -31 -37 -53
-65 -22 -27 -44 -49 -50 -47 -15 4 -18 36 -6 60 12 25 40 188 34 199 -7 12
-73 8 -78 -5z"/>
<path d="M10817 17293 c-3 -4 -10 -66 -17 -138 -6 -71 -18 -166 -26 -211 -22
-125 -22 -124 31 -124 l45 0 1 53 c2 104 14 165 39 192 26 27 77 34 98 13 14
-14 15 -85 1 -148 -24 -115 -26 -106 20 -114 78 -12 81 -6 81 159 l0 144 -27
21 c-24 19 -37 21 -87 17 -32 -3 -63 -10 -69 -16 -23 -23 -29 -8 -25 72 l3 82
-32 3 c-17 2 -33 -1 -36 -5z"/>
<path d="M10254 17146 c-3 -7 1 -35 9 -62 23 -79 39 -146 46 -194 9 -62 16
-70 62 -70 45 0 50 8 89 158 7 26 17 42 26 42 20 0 24 -14 32 -111 l7 -84 38
-3 c48 -4 63 8 76 61 13 58 37 121 73 195 17 34 28 65 24 69 -8 9 -71 7 -85
-2 -6 -3 -11 -15 -11 -27 0 -11 -7 -41 -15 -67 -8 -25 -17 -58 -20 -72 -4 -23
-31 -46 -42 -36 -2 2 -7 48 -13 102 -9 101 -16 115 -56 115 -27 0 -37 -13 -54
-70 -26 -88 -47 -150 -53 -156 -11 -11 -24 32 -37 121 -8 50 -18 93 -24 97
-19 13 -66 9 -72 -6z"/>
<path d="M9093 17138 c-18 -5 -35 -14 -39 -20 -10 -17 -8 -268 2 -278 5 -5
154 -10 332 -13 l322 -5 0 145 c0 83 -5 153 -11 164 -10 19 -20 20 -292 18
-155 -2 -296 -6 -314 -11z m432 -142 c18 -13 18 -14 -1 -24 -10 -5 -88 -13
-171 -17 -165 -8 -193 -2 -172 36 9 17 23 19 167 19 118 0 163 -3 177 -14z"/>
<path d="M11312 17087 c-13 -16 -9 -50 9 -72 5 -7 75 -10 201 -8 l193 3 3 40
3 40 -103 0 c-57 0 -146 3 -198 6 -80 6 -97 4 -108 -9z"/>
<path d="M11434 16952 c-15 -14 -8 -41 14 -59 10 -8 49 -13 96 -14 113 -2 140
-9 144 -37 4 -23 3 -23 -85 -19 -48 2 -130 10 -181 17 -104 15 -113 12 -115
-41 l-2 -34 160 -3 c88 -1 163 -6 168 -11 11 -11 -31 -51 -55 -51 -20 0 -105
-26 -131 -41 -19 -11 -48 0 -84 33 -27 25 -57 20 -61 -10 -4 -27 22 -72 41
-72 8 0 24 -11 36 -24 25 -26 15 -42 -19 -31 -29 9 -60 -3 -60 -24 0 -27 21
-41 60 -41 20 0 55 -9 79 -21 62 -29 42 -47 -57 -51 l-77 -3 0 -39 0 -40 155
3 c120 2 165 -1 200 -13 41 -14 46 -14 58 1 15 20 15 29 2 54 -6 10 -19 19
-30 19 -29 0 -90 32 -90 47 0 7 5 13 11 13 6 0 25 6 42 14 18 8 39 16 48 19
21 7 33 67 17 84 -11 10 -18 10 -38 -2 -14 -8 -32 -17 -40 -20 -8 -4 -34 -16
-58 -27 -47 -22 -73 -19 -111 11 -32 25 -22 44 30 60 24 7 82 27 129 46 l85
33 0 143 0 144 -134 0 c-96 0 -138 -4 -147 -13z"/>
<path d="M9233 16640 c-27 -7 -56 -31 -75 -62 -16 -25 -17 -190 -18 -2547 0
-1897 3 -2526 11 -2545 28 -61 -17 -58 888 -58 743 0 831 2 859 16 17 9 36 25
42 36 14 26 15 5096 1 5133 -6 16 -20 27 -39 32 -34 7 -1641 3 -1669 -5z
m1227 -116 c0 -16 -16 -19 -25 -4 -8 13 4 32 16 25 5 -4 9 -13 9 -21z m324
-10 c27 -13 36 -25 41 -52 4 -19 6 -1119 6 -2444 l0 -2409 -22 -27 -21 -27
-203 0 c-112 0 -206 3 -210 6 -11 12 7 37 36 49 16 7 35 20 42 30 7 9 22 20
35 24 15 5 21 13 18 23 -4 9 1 17 14 20 23 6 60 62 60 91 0 20 -85 142 -100
142 -4 0 -13 14 -20 30 -7 17 -19 30 -26 30 -8 0 -14 10 -14 23 0 13 -5 28
-11 34 -8 8 -6 15 8 24 10 8 27 31 37 51 11 20 27 39 37 41 12 3 15 12 12 31
-4 21 -2 26 15 26 25 0 72 73 72 111 0 28 -35 89 -50 89 -6 0 -16 13 -23 28
-18 42 -79 121 -99 127 -22 8 -23 34 -3 41 9 4 15 11 14 18 -3 24 2 33 25 44
13 6 27 23 30 38 4 16 23 45 42 67 54 59 70 99 54 136 -7 17 -23 42 -36 56
-13 14 -35 45 -49 69 -16 27 -35 46 -50 50 -27 7 -30 21 -19 87 4 24 21 53 50
84 24 25 44 52 44 59 0 7 13 25 30 41 31 30 46 79 36 113 -4 11 -32 49 -62 84
-79 91 -79 91 -76 104 1 6 -4 14 -13 18 -33 12 -6 136 30 136 8 0 26 22 39 48
13 27 32 54 41 62 23 19 45 65 45 95 0 14 -12 38 -29 55 -16 17 -34 44 -41 60
-7 16 -21 32 -31 35 -10 4 -19 12 -19 19 0 7 -16 27 -35 46 -38 37 -44 55 -20
64 8 3 15 14 15 25 0 11 10 27 21 35 21 14 26 21 63 87 10 19 32 49 47 67 18
20 29 44 29 62 0 35 -52 116 -80 125 -11 4 -20 11 -20 16 0 5 -20 38 -45 74
-43 64 -48 88 -19 99 8 3 14 12 14 20 0 9 8 20 19 25 10 6 22 23 26 38 3 15
20 41 37 57 35 36 68 97 68 125 0 11 -13 33 -30 49 -16 17 -30 34 -30 38 0 17
-55 87 -75 94 -13 5 -25 24 -33 54 -12 47 -12 48 19 79 18 17 38 47 46 65 8
19 23 44 35 56 35 36 65 80 72 103 9 27 -20 93 -40 93 -8 0 -19 11 -24 25 -5
14 -14 25 -20 25 -5 0 -10 6 -10 14 0 17 -63 86 -78 86 -23 0 -19 31 9 75 17
26 57 84 91 128 33 44 62 94 65 111 6 37 -21 89 -67 126 -16 14 -30 34 -30 45
0 12 -5 26 -12 33 -9 9 -9 18 0 37 12 25 12 25 141 25 100 0 138 -4 165 -16z
m-1345 -9 c17 -10 3 -25 -25 -25 -33 0 -64 -17 -64 -35 0 -8 -9 -15 -20 -15
-12 0 -20 7 -20 16 0 10 -6 14 -15 11 -21 -9 -29 11 -15 38 11 21 18 23 80 20
38 -1 73 -6 79 -10z m929 -117 l3 -68 49 0 c64 0 100 -14 100 -40 0 -25 -66
-60 -114 -60 l-35 0 -3 -72 -3 -73 -245 -3 c-279 -3 -270 -6 -262 77 4 41 1
50 -14 58 -11 5 -118 6 -239 3 -121 -3 -230 -3 -241 1 -19 7 -21 14 -19 71 1
35 3 66 4 70 0 4 115 6 254 5 l252 -2 3 53 3 52 252 -2 252 -3 3 -67z m-998
-288 c17 -9 83 -15 197 -19 l172 -6 31 -30 c37 -36 36 -63 -5 -86 -24 -14 -63
-19 -198 -23 -125 -4 -176 -9 -200 -21 -46 -23 -84 -12 -91 28 -8 47 -10 193
-1 207 5 7 17 4 38 -13 18 -13 43 -30 57 -37z m987 -189 c8 -1 13 -26 15 -73
l3 -73 58 3 c61 4 87 -7 87 -37 0 -31 -41 -55 -95 -56 l-50 0 -3 -77 c-2 -43
-6 -78 -10 -78 -4 0 -116 -2 -249 -4 -180 -4 -245 -2 -250 7 -5 7 -8 37 -8 67
l0 55 -250 3 -250 3 -49 43 c-53 47 -58 76 -11 76 14 0 33 9 43 20 16 20 26
21 258 19 133 -1 247 2 253 5 6 4 11 26 11 50 0 23 2 45 4 47 3 3 429 3 493 0z
m-1021 -365 c27 -8 63 -15 79 -15 199 -4 288 -12 330 -32 24 -11 47 -29 50
-40 9 -26 -2 -56 -23 -65 -18 -7 -252 -25 -335 -24 -29 0 -64 -8 -87 -20 -76
-39 -93 -19 -85 94 4 46 2 77 -5 81 -17 10 -11 35 8 35 10 0 41 -6 68 -14z
m1032 -273 l3 -73 62 0 c53 0 64 -3 76 -22 12 -20 11 -24 -15 -45 -21 -17 -42
-23 -76 -23 l-48 0 0 -80 0 -79 -247 -3 c-137 -2 -252 1 -258 5 -5 5 -10 34
-10 65 l0 57 -252 -4 c-211 -3 -253 -1 -254 10 -1 12 0 146 1 172 0 5 109 8
243 7 133 -1 248 -1 255 -1 7 1 12 16 12 39 0 21 3 42 7 46 4 3 117 5 252 4
l246 -3 3 -72z m-1032 -285 l46 -33 166 -6 c92 -3 178 -11 192 -16 67 -28 78
-91 19 -112 -18 -6 -68 -11 -113 -11 -173 -2 -268 -14 -313 -43 -24 -15 -46
-27 -51 -27 -10 0 -25 257 -16 271 9 15 21 10 70 -23z m1034 -284 l0 -76 58 3
c86 3 92 2 92 -25 0 -33 -54 -66 -108 -66 l-41 0 -3 -77 -3 -78 -249 -3 c-184
-2 -252 1 -257 9 -4 7 -5 37 -2 66 l6 54 -249 -1 c-137 -1 -255 -1 -261 -1
-15 1 -18 147 -4 169 7 11 57 13 257 11 l249 -4 3 48 3 47 255 0 254 0 0 -76z
m-1041 -277 c30 -25 97 -36 236 -40 158 -3 209 -18 234 -71 13 -27 12 -31 -7
-46 -31 -25 -121 -39 -279 -43 -134 -4 -144 -5 -182 -30 -45 -30 -61 -33 -62
-14 -2 53 3 242 7 249 8 12 36 10 53 -5z m1028 -216 c8 -1 13 -25 15 -68 l3
-68 67 -6 c38 -3 71 -9 75 -12 12 -13 -22 -60 -52 -71 -16 -5 -34 -9 -39 -8
-6 2 -20 1 -32 -2 -21 -6 -23 -13 -26 -82 l-3 -75 -246 -1 c-136 0 -251 2
-257 6 -6 4 -8 28 -5 62 l6 55 -249 -1 c-137 -1 -255 -1 -261 -1 -14 1 -19
147 -5 167 5 8 83 11 257 10 l250 -1 1 41 c0 22 3 45 6 50 5 7 377 10 495 5z
m-1007 -366 c22 -18 101 -28 211 -26 110 3 168 -10 216 -46 47 -36 43 -57 -19
-86 -50 -24 -62 -25 -203 -24 -145 2 -152 1 -206 -25 -31 -16 -61 -28 -66 -28
-20 0 -25 189 -7 249 5 15 50 7 74 -14z m1022 -268 l3 -72 50 -3 c75 -4 95
-10 95 -31 0 -33 -68 -71 -126 -71 -23 0 -24 -3 -24 -75 l0 -75 -255 0 c-236
0 -255 1 -256 18 -1 9 -2 37 -3 62 l-1 44 -255 1 -255 0 0 85 0 85 245 2 c135
1 251 2 258 2 8 1 12 18 12 50 0 27 4 51 10 53 5 2 120 2 254 0 l245 -3 3 -72z
m-1017 -303 c25 -16 56 -20 206 -24 l178 -5 31 -30 c37 -35 36 -60 -3 -89 -25
-19 -46 -22 -200 -27 -165 -5 -174 -6 -224 -33 -28 -16 -57 -26 -64 -24 -8 3
-11 43 -11 148 1 80 1 147 2 149 0 3 12 -7 28 -21 15 -14 40 -34 57 -44z
m1055 -99 c0 -8 -7 -15 -15 -15 -8 0 -15 7 -15 15 0 8 7 15 15 15 8 0 15 -7
15 -15z m-40 -155 l5 -75 69 -10 c38 -5 71 -15 73 -22 7 -21 -35 -52 -89 -66
l-53 -13 -5 -69 -5 -69 -250 0 -250 0 -5 60 -5 59 -252 -3 -252 -4 -6 24 c-3
13 -5 51 -3 83 l3 60 247 1 c135 1 253 4 260 7 11 4 14 19 10 61 l-5 56 254
-2 254 -3 5 -75z m-1034 -295 c40 -23 56 -26 230 -34 187 -8 188 -8 211 -35
29 -34 29 -44 -5 -83 l-27 -31 -135 -7 c-74 -4 -155 -8 -180 -9 -47 -2 -112
-26 -141 -52 -15 -14 -17 -8 -23 64 -9 98 2 212 20 212 4 0 26 -11 50 -25z
m1034 -266 l5 -74 70 -5 c67 -5 70 -6 70 -30 0 -27 -31 -47 -100 -65 l-40 -10
-5 -70 c-5 -69 -6 -70 -32 -69 -16 0 -129 1 -253 2 l-225 2 0 60 0 60 -260 0
-261 0 3 77 3 78 255 0 255 0 3 50 c1 28 4 55 6 60 2 7 93 10 252 9 l249 -1 5
-74z m-1083 -259 c3 -11 14 -20 25 -20 11 0 29 -5 40 -11 27 -15 79 -20 218
-23 127 -3 176 -15 209 -50 29 -31 19 -71 -23 -97 -27 -16 -51 -19 -186 -19
-151 0 -156 -1 -218 -30 -35 -17 -68 -30 -73 -30 -6 0 -9 54 -8 139 1 76 -1
143 -5 150 -4 6 -2 11 4 11 7 0 14 -9 17 -20z m1070 -224 c10 -4 13 -22 12
-66 -1 -33 1 -63 4 -67 4 -4 30 -7 57 -7 34 -1 55 -7 67 -19 17 -18 17 -19 -9
-41 -14 -13 -43 -27 -65 -31 -21 -3 -46 -14 -56 -23 -16 -14 -72 -16 -517 -17
-414 -1 -500 2 -505 13 -10 27 -5 130 8 139 7 6 105 7 252 2 132 -4 243 -5
248 -2 4 2 7 30 7 62 0 32 2 60 4 62 6 6 476 1 493 -5z m-1025 -358 c68 -40
65 -38 48 -48 -20 -13 -60 -13 -60 0 0 5 -13 7 -30 4 -23 -5 -30 -3 -30 9 0 9
8 20 17 26 14 8 15 12 4 25 -20 23 -8 20 51 -16z"/>
<path d="M8360 15952 c0 -509 1 -540 18 -555 16 -15 49 -17 255 -17 215 0 237
2 246 18 9 16 5 1053 -4 1080 -3 9 -64 12 -260 12 l-255 0 0 -538z m397 430
c31 -17 47 -110 38 -226 -6 -81 -10 -96 -24 -96 -9 0 -22 5 -28 11 -12 12
-204 15 -254 4 -24 -6 -30 -3 -38 17 -8 21 -5 259 4 285 2 6 19 14 37 16 56 8
243 0 265 -11z m-208 -376 c8 -10 8 -21 1 -40 -30 -80 4 -136 81 -136 74 0 92
41 64 153 -7 26 -6 27 28 27 49 0 67 -28 66 -100 -2 -86 -9 -100 -68 -131 -92
-50 -189 -35 -234 34 -47 72 -47 122 0 177 27 33 44 37 62 16z m239 -294 c10
-7 11 -31 8 -97 -3 -49 -9 -92 -13 -96 -5 -4 -82 -9 -173 -11 l-164 -3 -2 53
c0 29 4 56 10 59 6 4 70 6 143 4 l133 -3 0 39 c0 53 24 76 58 55z"/>
<path d="M8545 16287 c-17 -14 -28 -36 -32 -62 -8 -60 6 -66 123 -63 l99 3 3
29 c4 36 -15 83 -42 101 -33 24 -120 19 -151 -8z"/>
<path d="M11290 16271 c-5 -11 -10 -26 -10 -34 0 -20 33 -47 58 -47 12 0 36
-6 54 -14 33 -14 81 -28 208 -62 36 -10 78 -24 93 -31 16 -8 40 -13 55 -11 24
3 27 7 27 43 0 39 -1 40 -40 46 -22 3 -56 11 -75 17 -19 6 -82 26 -140 43 -58
17 -129 39 -158 50 -65 23 -59 23 -72 0z"/>
<path d="M11435 16055 c-5 -2 -27 -6 -48 -10 -63 -10 -96 -91 -65 -160 6 -14
16 -25 23 -25 16 0 57 -45 48 -53 -3 -4 -14 -7 -23 -7 -26 0 -70 -53 -70 -84
0 -38 28 -83 66 -107 25 -15 57 -20 150 -25 103 -5 124 -3 154 13 41 22 60 54
60 107 0 33 -7 45 -40 77 -43 41 -44 59 -4 78 50 23 56 107 9 151 -33 31 -210
62 -260 45z m198 -98 c24 -15 25 -20 15 -42 -15 -33 -39 -38 -150 -33 -74 3
-93 8 -104 23 -18 25 -18 40 3 60 23 24 197 18 236 -8z m5 -218 c29 -11 30
-54 0 -70 -23 -12 -198 -8 -231 6 -18 8 -34 51 -23 63 20 19 201 20 254 1z"/>
<path d="M11357 15512 c-36 -22 -55 -81 -38 -118 7 -15 9 -44 6 -68 -7 -55 5
-74 39 -58 18 8 74 9 189 5 l164 -6 6 34 c2 19 1 38 -4 43 -4 5 -65 8 -134 7
-123 -2 -127 -2 -161 24 -39 30 -44 60 -12 71 12 3 85 5 162 3 l141 -4 3 30
c6 49 -14 55 -182 55 -125 0 -156 -3 -179 -18z"/>
<path d="M11323 15199 c-22 -22 -1 -72 49 -122 38 -38 54 -48 76 -45 24 3 27
7 27 38 l0 35 120 0 120 0 3 48 3 48 -178 -2 c-98 -1 -185 2 -193 5 -9 4 -21
1 -27 -5z"/>
<path d="M8517 15031 c-69 -45 -97 -126 -97 -279 0 -158 20 -239 71 -292 31
-31 46 -40 73 -40 49 0 78 39 74 99 -3 51 -22 64 -39 27 -16 -34 -44 -33 -66
1 -15 23 -18 50 -18 178 0 168 11 215 50 215 12 0 29 -10 37 -22 21 -32 38
-14 38 41 0 80 -59 115 -123 72z"/>
<path d="M8840 15033 c-37 -7 -70 -41 -96 -101 -22 -47 -24 -67 -24 -196 0
-166 11 -205 78 -275 36 -37 45 -42 79 -39 l38 3 0 50 0 50 -38 6 c-49 8 -59
18 -66 71 -11 77 -6 87 47 90 41 3 47 6 50 27 2 12 1 34 -2 47 -6 21 -12 24
-50 24 -50 0 -57 9 -49 68 7 50 26 69 73 74 33 3 35 6 38 41 5 59 -11 72 -78
60z"/>
<path d="M11670 14854 c-14 -7 -34 -14 -45 -14 -11 0 -31 -7 -45 -15 -14 -8
-36 -14 -50 -15 -24 0 -56 -9 -175 -50 -48 -17 -50 -19 -53 -58 l-3 -40 53
-16 c123 -38 155 -48 188 -61 128 -47 172 -58 181 -44 23 36 4 69 -48 84 -38
10 -38 11 -41 68 l-3 56 45 12 c50 12 62 31 51 79 -7 33 -17 35 -55 14z m-102
-150 c6 -39 -21 -48 -80 -27 -29 10 -52 23 -51 28 3 14 42 24 88 22 32 -2 41
-6 43 -23z"/>
<path d="M11319 14510 c-12 -7 -15 -25 -13 -89 1 -44 5 -84 9 -90 3 -6 29 -11
57 -11 28 0 68 -5 89 -11 54 -17 71 -2 57 49 -9 32 -8 38 12 54 41 33 120 17
120 -23 0 -12 -9 -34 -20 -50 -17 -23 -19 -33 -10 -49 13 -25 20 -25 64 1 35
21 36 22 36 85 0 59 -2 65 -37 99 -35 34 -38 35 -112 35 -91 -1 -115 -16 -128
-81 -7 -34 -13 -44 -28 -44 -17 0 -20 8 -23 60 -4 71 -27 92 -73 65z"/>
<path d="M11562 14244 c-22 -25 -25 -26 -130 -24 -139 3 -132 5 -132 -32 0
-34 0 -34 100 -90 19 -11 49 -28 65 -39 17 -10 40 -23 51 -28 12 -5 24 -15 26
-22 2 -7 23 -12 48 -13 l45 -1 -3 45 c-5 73 3 88 45 92 31 3 38 7 44 32 11 39
-4 56 -47 56 -27 0 -37 5 -46 25 -14 32 -37 32 -66 -1z m-4 -103 c8 -4 12 -19
10 -32 -2 -18 -9 -23 -26 -22 -28 4 -71 33 -72 51 0 14 67 17 88 3z"/>
<path d="M8480 14210 c-12 -8 -21 -46 -14 -64 4 -9 23 -26 43 -36 20 -11 50
-31 66 -45 25 -21 28 -27 15 -35 -8 -6 -36 -8 -63 -4 -53 7 -77 -5 -77 -40 0
-27 18 -46 43 -46 24 0 124 -60 160 -95 19 -20 34 -26 59 -23 32 3 33 4 38 58
l5 55 40 0 40 0 0 45 c0 45 0 45 -37 48 -20 2 -42 10 -48 18 -16 18 -39 18
-59 0 -16 -14 -35 -20 -58 -17 -12 1 -11 70 2 91 5 8 36 11 104 8 l96 -3 3 43
c2 29 -1 42 -10 43 -52 4 -341 3 -348 -1z m178 -281 c-2 -6 -8 -10 -13 -10 -5
0 -11 4 -13 10 -2 6 4 11 13 11 9 0 15 -5 13 -11z"/>
<path d="M11638 13837 c-31 -18 -75 -42 -98 -54 -65 -36 -99 -31 -144 22 -39
46 -62 55 -84 33 -24 -24 -13 -65 33 -116 25 -27 45 -55 45 -61 0 -24 49 -43
107 -40 32 1 65 -1 75 -5 9 -4 45 -8 80 -9 l63 -2 0 35 0 35 -72 -3 c-83 -4
-98 1 -83 29 12 21 67 48 119 58 38 7 58 43 47 86 -8 32 -18 31 -88 -8z"/>
<path d="M8469 13761 c-17 -14 -18 -20 -8 -49 7 -19 22 -37 35 -42 33 -13 30
-42 -6 -78 -32 -33 -36 -52 -19 -99 9 -26 17 -32 52 -37 69 -9 258 8 295 27
32 18 37 32 25 76 -6 24 -6 24 -118 18 -61 -3 -116 -2 -122 1 -15 10 -4 112
13 119 8 3 55 0 104 -5 103 -13 120 -9 120 24 0 32 -36 54 -90 52 -25 0 -94 2
-153 4 -90 4 -112 2 -128 -11z"/>
<path d="M11305 13556 c-3 -9 -7 -22 -9 -29 -10 -32 12 -42 91 -42 l78 0 0
-75 0 -75 -80 0 -80 0 -3 -42 -3 -41 203 -4 c138 -3 207 0 216 7 8 7 10 22 6
43 l-6 32 -89 0 -89 0 0 75 c0 53 4 75 13 76 6 0 46 0 88 -1 81 -1 97 9 84 50
-5 16 -26 18 -173 24 -92 3 -184 8 -204 12 -30 5 -39 3 -43 -10z"/>
<path d="M8679 13408 c-37 -10 -49 -28 -74 -115 -5 -17 -14 -23 -35 -23 -41 0
-46 26 -14 72 24 33 25 41 13 52 -24 24 -76 8 -99 -29 -27 -43 -25 -87 5 -134
43 -69 95 -89 143 -55 24 17 72 113 72 145 0 26 46 26 60 -1 8 -15 5 -28 -11
-59 -24 -47 -22 -94 4 -99 31 -6 94 43 102 78 11 48 -3 115 -28 137 -47 43
-72 49 -138 31z"/>
<path d="M11331 13179 c-47 -46 -43 -88 13 -144 67 -66 161 -75 213 -19 21 23
24 34 19 65 -3 21 -3 40 2 43 17 10 53 -31 59 -69 7 -45 16 -55 56 -55 20 0
30 7 37 25 22 58 -50 131 -166 171 -42 14 -47 14 -65 -2 -25 -22 -24 -46 2
-62 32 -20 21 -55 -21 -65 -49 -12 -90 5 -90 37 0 19 7 26 30 31 22 5 30 12
30 29 0 55 -70 64 -119 15z"/>
<path d="M8522 13112 c-71 -38 -92 -120 -48 -190 35 -56 48 -63 108 -60 50 3
54 5 71 40 10 21 24 59 30 85 10 39 17 49 36 51 52 8 55 -53 5 -113 -20 -24
-33 -49 -29 -55 3 -5 22 -10 42 -10 28 0 44 8 76 40 39 39 40 42 34 94 -6 62
-28 101 -68 122 -74 38 -130 4 -157 -96 -15 -58 -20 -65 -44 -68 -53 -6 -59
61 -8 88 25 13 26 41 3 68 -18 20 -19 21 -51 4z"/>
<path d="M11475 12940 c-113 -9 -130 -15 -155 -55 -25 -41 -25 -69 0 -110 41
-67 97 -82 252 -70 119 9 149 28 155 101 9 111 -61 148 -252 134z m127 -80
c26 0 58 -22 58 -40 0 -5 -12 -17 -26 -27 -44 -28 -235 -13 -247 20 -15 44 18
58 123 51 36 -2 77 -4 92 -4z"/>
<path d="M8510 12812 c-60 -18 -77 -90 -39 -163 31 -61 108 -87 156 -54 23 16
63 95 63 124 0 22 19 41 42 41 27 0 34 -47 15 -101 -21 -57 -21 -75 -3 -82 22
-9 89 19 97 39 6 18 2 116 -6 160 -5 25 -61 44 -128 44 -52 0 -64 -12 -88 -85
-18 -55 -25 -63 -54 -57 -20 3 -25 10 -25 35 0 17 7 38 16 48 27 30 -3 64 -46
51z"/>
<path d="M11315 12649 c-4 -6 -8 -47 -9 -90 -2 -64 1 -82 13 -88 16 -8 108
-22 166 -25 l30 -1 -3 58 -3 58 36 15 c32 13 39 13 70 -2 42 -20 45 -44 10
-90 -14 -18 -25 -42 -25 -53 0 -33 69 -29 101 5 20 22 24 36 24 90 0 58 -3 66
-32 96 -31 31 -34 32 -112 30 -87 -2 -119 -14 -126 -49 -3 -13 -7 -34 -10 -48
-4 -19 -12 -25 -30 -25 -23 0 -25 3 -25 49 0 32 -6 55 -16 65 -18 18 -50 21
-59 5z"/>
<path d="M8467 12523 c-9 -9 -9 -53 1 -54 4 -1 72 -4 152 -6 80 -2 161 -5 180
-6 34 -2 35 -1 38 36 l3 37 -184 0 c-101 0 -187 -3 -190 -7z"/>
<path d="M8535 12402 c-77 -27 -107 -120 -64 -204 19 -37 25 -40 114 -53 22
-4 52 -11 68 -17 24 -9 30 -7 48 16 12 15 30 26 45 26 14 0 40 15 62 34 35 32
37 38 37 95 0 51 -4 63 -25 83 -22 21 -34 23 -145 25 -66 1 -129 -1 -140 -5z
m223 -101 c6 -38 -22 -51 -109 -51 -118 0 -161 26 -106 65 17 12 43 15 117 13
92 -3 95 -4 98 -27z"/>
<path d="M11404 12328 c-47 -54 -47 -55 -25 -91 29 -47 64 -61 101 -42 42 22
42 80 1 124 -35 37 -51 39 -77 9z"/>
<path d="M11304 12137 c-3 -9 -4 -26 -2 -38 3 -24 16 -30 163 -70 98 -27 127
-39 122 -53 -2 -6 -17 -12 -33 -14 -41 -3 -161 -31 -211 -49 -34 -12 -43 -20
-43 -38 0 -35 20 -46 66 -34 21 5 48 14 59 19 11 5 45 13 75 18 30 6 80 17
110 27 30 9 67 19 82 22 20 4 27 12 30 36 6 54 -1 66 -45 78 -23 6 -60 17 -82
24 -22 7 -74 23 -115 35 -41 13 -79 26 -85 31 -5 4 -27 10 -47 14 -29 6 -39 4
-44 -8z"/>
<path d="M8750 12118 c-24 -26 -26 -57 -5 -84 8 -10 15 -29 15 -41 0 -21 -3
-21 -97 -16 -127 6 -127 6 -120 47 8 49 -12 74 -50 61 -25 -9 -29 -16 -34 -70
-10 -95 -1 -134 35 -156 47 -29 82 -25 94 10 10 29 11 30 69 23 32 -4 85 -7
118 -7 l60 0 3 128 3 127 -35 0 c-23 0 -42 -7 -56 -22z"/>
<path d="M11450 11810 c-36 -3 -76 -12 -90 -19 -59 -31 -76 -91 -43 -150 35
-61 97 -78 266 -73 62 2 70 5 105 36 34 32 37 38 37 91 0 49 -4 60 -28 80 -49
43 -103 50 -247 35z m180 -85 c39 -20 40 -52 3 -66 -42 -16 -232 -7 -243 11
-16 25 -11 46 13 58 35 17 193 15 227 -3z"/>
<path d="M8562 11786 c-89 -18 -117 -47 -115 -120 2 -96 55 -137 181 -144 90
-5 152 11 189 50 24 25 28 38 28 83 0 47 -4 58 -33 88 -28 29 -45 36 -102 46
-38 6 -72 11 -77 10 -4 -1 -36 -7 -71 -13z m165 -92 c31 -8 41 -44 17 -61 -22
-16 -166 -18 -195 -3 -21 12 -26 56 -6 63 17 8 158 8 184 1z"/>
<path d="M11558 11533 c-10 -2 -18 -8 -18 -11 0 -4 -9 -13 -20 -20 -18 -11
-25 -10 -47 8 -32 25 -43 25 -96 0 -79 -37 -102 -124 -47 -179 37 -36 66 -47
85 -31 21 17 19 31 -10 69 -46 63 10 98 68 44 l28 -28 27 33 c23 27 34 32 68
32 89 0 83 -66 -8 -94 -22 -7 -24 -49 -3 -66 20 -16 87 2 116 31 23 23 35 94
20 131 -20 52 -109 97 -163 81z"/>
<path d="M11394 11246 c-55 -20 -94 -68 -94 -117 0 -32 39 -89 68 -100 54 -21
85 22 42 58 -24 20 -26 61 -5 69 28 11 62 -5 75 -35 18 -46 60 -53 60 -11 0
25 38 60 65 60 44 0 72 -60 37 -79 -10 -5 -24 -21 -31 -35 -17 -31 -1 -56 35
-56 27 0 30 -10 12 -29 -7 -6 -13 -35 -13 -64 0 -72 -19 -72 -89 2 -71 74
-104 89 -155 71 -96 -34 -133 -134 -73 -198 34 -36 80 -51 93 -31 14 23 10 47
-12 68 -31 29 -22 65 18 69 27 3 41 -6 92 -52 33 -30 78 -66 100 -80 43 -27
100 -35 102 -13 1 13 1 217 0 230 -1 4 -12 12 -26 17 -32 12 -32 24 -1 38 29
13 41 61 33 124 -8 60 -39 86 -112 94 -53 6 -62 4 -79 -15 -22 -24 -41 -27
-53 -7 -7 12 -47 38 -55 35 -2 -1 -17 -6 -34 -13z"/>
<path d="M9540 11211 c-91 -10 -154 -32 -277 -94 -34 -17 -65 -37 -67 -44 -3
-7 -12 -13 -21 -13 -18 0 -185 -168 -185 -186 0 -7 -6 -17 -13 -21 -14 -9 -67
-115 -87 -173 -12 -36 -25 -124 -37 -239 -7 -70 11 -208 36 -286 15 -47 76
-164 91 -175 4 -3 9 -11 11 -18 7 -22 120 -146 164 -179 64 -50 162 -98 269
-133 91 -30 111 -33 215 -32 139 1 325 42 363 80 7 7 18 12 25 12 20 0 145 90
186 134 159 170 232 335 244 554 7 130 -17 233 -89 377 -46 92 -149 216 -233
281 -42 33 -151 94 -167 94 -6 0 -24 6 -41 14 -102 43 -255 62 -387 47z m194
-112 c83 -14 185 -47 221 -70 17 -10 39 -23 50 -28 39 -18 140 -108 188 -166
55 -68 101 -160 128 -255 24 -82 26 -253 4 -331 -36 -127 -146 -291 -253 -376
-43 -35 -131 -82 -202 -108 -127 -47 -315 -51 -425 -8 -127 50 -191 89 -270
169 -188 188 -237 362 -189 673 7 48 79 176 149 263 87 111 250 204 405 233
87 16 122 17 194 4z"/>
<path d="M9545 10921 c-85 -26 -172 -68 -225 -110 -51 -39 -120 -122 -120
-143 0 -7 -6 -22 -13 -33 -21 -32 -41 -125 -39 -185 1 -74 -7 -87 -47 -70 -35
14 -61 8 -61 -16 0 -9 29 -48 65 -86 36 -39 65 -75 65 -80 0 -17 88 -124 136
-167 78 -68 235 -131 330 -131 54 0 154 19 187 36 16 8 35 14 42 14 20 0 128
83 177 136 72 78 123 205 115 287 -5 54 10 70 44 49 56 -35 66 18 19 98 -48
81 -175 244 -222 284 -119 103 -325 156 -453 117z m164 -139 l29 -27 2 -310
c1 -171 2 -317 1 -325 -1 -22 -53 -50 -90 -50 -26 0 -57 13 -90 37 -7 5 -3
642 5 654 11 19 68 49 92 49 12 0 35 -12 51 -28z m-304 -74 c14 -6 26 -16 26
-22 1 -6 1 -122 0 -258 0 -137 3 -248 8 -248 14 0 0 -48 -16 -55 -9 -3 -23 1
-33 10 -9 8 -20 15 -25 15 -12 0 -104 103 -111 125 -3 11 -13 27 -21 37 -10
11 -11 18 -4 23 6 3 11 17 11 31 0 13 4 32 9 42 14 26 33 101 27 110 -2 4 4
31 13 60 13 36 29 61 52 78 22 16 33 32 31 44 -4 23 -1 24 33 8z m525 -8 c0
-5 7 -10 15 -10 9 0 20 -11 25 -24 5 -13 13 -27 19 -30 12 -8 101 -134 101
-144 0 -4 -11 -29 -25 -56 -14 -27 -25 -57 -25 -66 0 -15 -37 -111 -70 -181
-8 -17 -24 -29 -44 -34 -17 -4 -25 -9 -18 -12 6 -2 12 -11 12 -18 0 -23 -20
-28 -41 -9 -11 10 -19 12 -19 6 0 -7 -8 -12 -17 -12 -15 0 -14 2 3 14 18 14
19 31 22 288 2 170 7 277 14 285 12 15 48 17 48 3z"/>
<path d="M10789 10986 c-5 -6 -9 -45 -9 -87 0 -95 -10 -109 -81 -109 -43 0
-49 -3 -55 -24 -14 -57 -7 -61 101 -64 120 -3 125 0 125 99 0 83 6 99 36 99
33 0 45 -30 38 -94 -4 -30 -4 -66 0 -81 l7 -26 102 3 102 3 0 40 0 40 -50 5
c-46 5 -50 7 -59 38 -6 23 -6 49 3 81 12 49 7 81 -13 81 -192 4 -239 3 -247
-4z"/>
<path d="M10788 10551 c-71 -34 -81 -43 -120 -100 -28 -42 -31 -53 -31 -122 0
-71 3 -81 34 -127 44 -64 82 -95 143 -115 63 -21 118 -21 176 0 49 18 130 77
130 95 0 6 6 19 13 27 8 9 20 41 27 73 21 91 -12 187 -83 240 -85 64 -194 75
-289 29z m227 -169 c39 -59 41 -67 22 -79 -7 -4 -21 -21 -31 -36 -21 -34 -71
-57 -122 -57 -52 0 -99 49 -108 114 -7 46 -6 50 29 85 36 36 36 36 105 31 l70
-5 35 -53z"/>
<path d="M10265 8923 c-92 -8 -212 -57 -260 -107 -31 -31 -85 -103 -85 -112 0
-4 -6 -15 -13 -23 -58 -71 -61 -276 -6 -371 5 -8 12 -22 16 -30 3 -8 20 -33
37 -55 79 -101 174 -161 266 -168 36 -3 66 -6 68 -6 10 -3 -4 -36 -32 -73 -29
-37 -36 -56 -41 -114 -7 -72 2 -112 32 -142 59 -61 119 -68 176 -21 61 50 68
74 62 197 -4 59 -8 116 -10 128 -4 16 10 29 62 64 68 45 163 134 163 153 0 6
6 18 13 26 53 65 70 294 27 381 -42 86 -51 99 -101 148 -94 92 -229 138 -374
125z m253 -199 c-10 -10 -28 6 -28 24 0 15 1 15 17 -1 9 -9 14 -19 11 -23z
m-168 -24 c45 -23 105 -81 128 -125 22 -41 21 -131 -2 -179 -10 -22 -38 -58
-62 -81 -38 -37 -50 -43 -103 -49 -105 -12 -163 12 -215 92 -34 52 -36 59 -36
140 0 68 4 91 21 118 25 41 63 69 106 79 18 3 35 11 38 16 11 16 85 10 125
-11z m210 0 c0 -5 -7 -10 -15 -10 -8 0 -15 5 -15 10 0 6 7 10 15 10 8 0 15 -4
15 -10z m43 -70 c6 -24 -8 -36 -17 -14 -8 22 -7 34 3 34 5 0 11 -9 14 -20z
m41 -69 c3 -5 -1 -15 -10 -22 -13 -10 -17 -10 -24 1 -5 8 -6 18 -4 22 7 11 31
10 38 -1z m-16 -64 c4 -20 -25 -34 -40 -19 -15 15 -1 44 19 40 10 -2 19 -11
21 -21z m18 -51 c7 -19 -14 -58 -29 -53 -14 4 -21 32 -13 53 7 18 35 18 42 0z
m-210 -247 c8 -14 -18 -31 -30 -19 -9 9 0 30 14 30 5 0 12 -5 16 -11z m-38
-273 c3 -130 -6 -156 -54 -156 -37 0 -73 87 -43 105 6 4 9 37 8 80 -1 39 1 77
5 84 5 7 24 11 44 9 l37 -3 3 -119z"/>
<path d="M10170 8639 c-16 -29 -18 -265 -2 -281 21 -21 66 2 70 37 6 51 17 57
101 49 68 -5 78 -4 94 14 17 19 17 22 2 52 l-16 31 -77 -2 c-43 -2 -83 0 -90
5 -6 4 -12 25 -12 46 0 61 -47 93 -70 49z"/>
<path d="M8054 8906 c-155 -42 -268 -169 -300 -336 -20 -106 8 -233 74 -334
48 -75 193 -176 251 -176 39 0 49 -21 28 -63 -38 -82 -47 -112 -47 -166 0 -40
5 -63 15 -71 8 -7 15 -18 15 -25 0 -7 14 -25 31 -39 23 -20 42 -26 78 -26 42
0 53 5 85 36 54 53 59 71 51 219 l-7 130 66 34 c89 46 165 120 203 201 63 134
75 201 48 267 -8 19 -15 45 -15 57 0 40 -64 147 -117 196 -89 81 -178 111
-326 109 -50 -1 -110 -7 -133 -13z m179 -197 c59 -24 123 -86 132 -129 4 -17
11 -32 16 -35 24 -15 -3 -135 -45 -197 -53 -80 -167 -111 -261 -69 -26 12 -58
33 -71 47 -91 97 -83 287 14 347 107 66 132 70 215 36z m247 -65 c0 -16 -16
-19 -25 -4 -8 13 4 32 16 25 5 -4 9 -13 9 -21z m25 -62 c0 -18 -20 -15 -23 4
-3 10 1 15 10 12 7 -3 13 -10 13 -16z m23 -59 c-5 -25 -28 -28 -28 -4 0 12 6
21 16 21 9 0 14 -7 12 -17z m-20 -96 c-12 -54 -15 -56 -23 -14 -4 21 -2 44 5
57 18 34 29 7 18 -43z m-270 -379 c13 -17 21 -206 9 -240 -11 -33 -41 -44 -72
-28 -32 17 -38 48 -20 106 8 27 15 74 15 105 0 31 3 59 7 62 11 12 50 8 61 -5z"/>
<path d="M8107 8662 c-18 -20 -26 -165 -13 -261 9 -69 10 -71 51 -71 38 0 45
12 45 76 l0 44 59 0 c66 0 84 13 79 57 -3 27 -5 28 -63 31 -70 3 -85 17 -85
77 0 62 -38 86 -73 47z"/>
<path d="M9140 8905 c-119 -36 -141 -48 -202 -109 -62 -61 -70 -75 -112 -201
-30 -92 -15 -215 40 -325 22 -45 158 -180 181 -180 10 0 27 -7 37 -15 11 -8
34 -15 52 -15 55 0 61 -20 31 -108 -32 -93 -35 -158 -7 -204 31 -53 72 -78
128 -78 42 0 54 5 85 35 46 44 52 76 43 232 l-6 124 42 20 c24 11 53 26 66 34
50 28 120 106 153 172 34 67 34 69 34 203 0 128 -1 138 -29 193 -15 33 -54 85
-85 116 -89 91 -144 112 -306 117 -65 2 -116 -2 -145 -11z m141 -185 c51 -14
116 -61 140 -99 49 -81 44 -199 -13 -275 -48 -64 -86 -81 -177 -81 -65 0 -82
4 -116 26 -89 58 -127 148 -105 247 7 32 19 70 27 85 15 30 48 67 61 67 4 1
25 9 47 20 45 22 83 25 136 10z m48 -669 c19 -12 18 -230 -1 -261 -18 -29 -55
-36 -78 -15 -30 27 -34 68 -11 114 14 26 21 59 21 95 0 42 4 57 18 65 21 13
33 13 51 2z"/>
<path d="M9182 8668 c-7 -7 -12 -36 -12 -65 0 -58 -14 -73 -69 -73 -34 0 -56
-28 -46 -60 5 -15 17 -20 58 -22 l52 -3 5 -55 c4 -47 8 -55 27 -58 44 -6 63
14 63 68 l0 50 58 0 c31 0 62 4 68 8 18 12 24 42 14 63 -9 16 -22 19 -75 19
-60 0 -65 2 -71 24 -3 14 -3 34 1 46 14 44 -42 89 -73 58z"/>
<path d="M8589 6489 c-7 -4 -9 -77 -5 -222 4 -180 3 -217 -9 -227 -10 -8 -66
-13 -169 -14 -140 -1 -157 -3 -183 -22 -45 -33 -53 -61 -54 -190 -2 -198 8
-207 246 -214 l160 -5 -3 -200 c-1 -110 -5 -230 -8 -266 -5 -51 -3 -67 7 -70
8 -2 58 -3 112 -1 l98 3 -1 257 c-1 141 -1 263 -1 270 1 9 39 12 155 12 l154
0 39 38 c44 43 53 78 53 196 0 82 -14 126 -51 162 l-30 29 -161 1 c-127 1
-162 4 -167 15 -4 8 -4 109 -1 224 4 118 3 214 -2 220 -10 11 -163 15 -179 4z
m398 -593 c8 -7 5 -168 -3 -175 -6 -7 -585 -10 -625 -4 -24 4 -27 9 -33 63 -8
70 0 109 25 118 22 9 628 7 636 -2z"/>
<path d="M8957 5173 c-12 -11 -8 -78 5 -91 9 -9 150 -12 575 -12 556 0 562 0
573 20 6 12 10 35 8 53 l-3 32 -576 3 c-316 1 -579 -1 -582 -5z"/>
<path d="M7338 5151 c-29 -9 -39 -70 -15 -89 13 -10 1016 -16 1050 -6 13 4 17
16 17 50 0 28 -4 44 -12 44 -86 3 -1031 4 -1040 1z"/>
</g>
</svg>
