<?xml version="1.0" standalone="no"?>
<!DOCTYPE svg PUBLIC "-//W3C//DTD SVG 20010904//EN"
 "http://www.w3.org/TR/2001/REC-SVG-20010904/DTD/svg10.dtd">
<svg version="1.0" xmlns="http://www.w3.org/2000/svg"
 width="1800.000000pt" height="1800.000000pt" viewBox="0 0 1800.000000 1800.000000"
 preserveAspectRatio="xMidYMid meet">
<g transform="translate(0.000000,1800.000000) scale(0.100000,-0.100000)"
fill="#000000" stroke="none">
<path d="M6415 16613 c-16 -2 -68 -10 -115 -17 -148 -26 -233 -39 -295 -46
-33 -4 -80 -12 -105 -18 -72 -17 -159 -33 -240 -43 -41 -4 -93 -13 -115 -19
-22 -5 -60 -10 -85 -10 -72 -1 -113 -22 -199 -100 -83 -75 -97 -104 -66 -130
18 -15 19 -42 3 -58 -7 -7 -43 -12 -88 -12 -41 -1 -104 -7 -140 -15 -36 -8
-84 -14 -107 -15 -24 0 -78 -6 -120 -14 -190 -35 -361 -59 -428 -59 -72 -1
-125 8 -365 58 -41 8 -88 15 -105 15 -16 0 -59 6 -95 14 -85 20 -175 35 -263
46 -40 5 -103 14 -142 21 -60 10 -81 9 -145 -6 -141 -32 -213 -78 -264 -166
-58 -102 -56 -50 -56 -1397 0 -950 -3 -1241 -12 -1250 -7 -7 -33 -12 -60 -12
-37 0 -50 -4 -58 -19 -21 -40 -11 -78 33 -133 23 -30 57 -74 75 -100 l32 -47
0 -4965 0 -4964 26 -21 c18 -14 41 -21 71 -21 24 0 54 -5 65 -11 11 -6 44 -15
72 -19 49 -7 78 -13 191 -41 28 -7 76 -15 107 -18 32 -4 63 -12 69 -18 8 -8
11 -71 10 -200 -2 -228 -6 -222 121 -234 46 -4 90 -10 99 -13 15 -7 49 -100
49 -136 0 -42 26 -113 46 -126 82 -54 392 -82 674 -60 136 11 247 47 283 92
15 19 25 24 41 19 11 -4 39 -11 61 -15 22 -5 60 -14 85 -20 25 -7 70 -18 100
-25 30 -7 78 -19 105 -25 28 -7 73 -16 100 -21 28 -4 68 -12 90 -18 22 -5 76
-17 120 -26 44 -9 105 -23 135 -30 30 -7 91 -21 135 -30 44 -9 109 -22 145
-30 36 -7 101 -21 145 -30 44 -9 103 -23 131 -31 28 -8 69 -14 90 -14 49 0 64
-14 64 -57 0 -19 7 -50 15 -70 8 -19 15 -55 15 -79 0 -23 6 -46 13 -51 21 -14
81 -34 122 -43 22 -4 54 -13 70 -20 47 -20 543 -17 610 4 28 9 58 16 68 16 26
0 87 29 115 53 16 15 22 32 22 62 0 24 7 62 15 85 8 23 15 55 15 71 0 15 10
39 23 54 21 24 29 26 172 35 83 6 168 15 190 20 22 5 67 10 100 10 33 0 89 7
125 15 36 8 95 14 132 15 37 0 100 6 140 14 69 14 163 25 373 46 50 5 110 13
135 19 25 6 77 11 115 11 39 0 113 6 165 14 52 8 158 22 235 31 77 8 176 20
220 26 44 6 123 15 175 19 52 5 115 13 140 19 25 6 65 11 90 11 25 0 90 7 145
15 133 19 258 34 380 45 55 4 120 13 145 19 25 6 74 11 110 11 36 0 96 7 135
15 38 8 92 15 118 15 26 0 80 6 120 14 40 8 117 17 172 20 55 3 116 10 135 16
19 5 66 10 105 10 38 0 106 6 150 14 44 8 127 20 185 26 152 16 174 19 290 35
188 26 283 37 398 45 62 5 117 12 123 15 5 4 56 10 112 15 113 9 243 25 327
41 30 6 74 13 96 16 l42 5 16 -55 c9 -30 16 -65 16 -77 0 -43 26 -75 77 -92
127 -43 189 -49 438 -46 238 4 328 14 387 44 14 8 33 14 41 14 21 0 44 39 49
85 5 38 11 63 45 193 l14 52 67 0 c52 1 72 5 91 21 24 19 24 20 22 223 l-2
204 23 5 c13 3 52 6 88 6 36 0 90 5 119 11 30 5 81 10 115 10 33 1 97 7 141
15 44 8 116 15 161 15 71 0 83 3 102 23 l22 23 0 6134 c0 5928 0 6135 -18
6153 -15 15 -44 19 -168 26 -82 5 -156 12 -164 15 -8 3 -64 10 -125 16 -60 5
-153 14 -205 19 -144 16 -344 39 -450 51 -52 6 -149 15 -215 20 -66 5 -140 14
-165 19 -25 6 -82 10 -127 11 -45 0 -94 5 -108 10 -15 6 -86 15 -158 20 -73 6
-152 15 -177 20 -25 5 -74 9 -110 10 -36 0 -105 7 -155 15 -49 8 -115 15 -145
15 -30 0 -100 6 -155 14 -119 18 -282 34 -460 46 -71 5 -154 14 -184 20 -29 5
-81 10 -115 10 -33 0 -96 7 -139 15 -43 8 -102 15 -130 15 -29 0 -90 7 -137
15 -47 8 -112 15 -145 15 -33 0 -89 5 -125 10 -36 6 -112 15 -170 20 -175 15
-411 39 -485 50 -78 10 -242 26 -413 40 -62 5 -116 12 -122 15 -5 3 -69 10
-142 15 -152 10 -299 24 -478 45 -69 8 -156 17 -195 20 -38 2 -101 9 -140 14
-78 11 -255 30 -385 41 -47 4 -129 12 -182 19 -235 27 -299 34 -398 41 -58 4
-145 13 -195 19 -99 12 -368 38 -455 45 -30 2 -91 9 -135 15 -71 9 -318 33
-480 45 -33 3 -100 9 -150 15 -123 13 -194 18 -230 14z m340 -172 c66 -6 158
-16 205 -22 47 -6 137 -15 200 -19 63 -5 142 -13 175 -19 33 -6 87 -11 120
-11 33 0 98 -7 145 -15 47 -8 114 -15 150 -15 36 0 85 -5 109 -11 25 -5 110
-14 190 -19 80 -6 166 -14 191 -20 25 -5 74 -9 110 -10 36 0 100 -7 143 -15
43 -8 109 -15 145 -15 37 0 94 -5 127 -11 33 -5 107 -14 165 -18 110 -9 252
-24 404 -42 49 -6 137 -15 195 -19 102 -8 214 -19 406 -41 50 -6 137 -14 195
-19 58 -5 139 -14 180 -19 41 -6 145 -17 230 -25 85 -8 205 -20 265 -26 61 -6
162 -16 225 -20 63 -5 144 -14 180 -19 36 -6 92 -11 125 -11 33 0 89 -7 125
-15 36 -8 92 -15 125 -15 33 0 105 -7 160 -15 55 -8 123 -15 151 -15 28 0 95
-7 150 -15 54 -8 128 -15 164 -15 36 -1 94 -7 130 -15 36 -8 94 -15 130 -15
36 0 94 -5 130 -11 36 -5 115 -14 175 -19 118 -9 242 -22 425 -46 63 -8 138
-14 165 -14 28 0 88 -7 135 -15 47 -8 119 -15 160 -15 41 0 95 -5 120 -11 25
-6 99 -14 165 -19 66 -4 156 -13 200 -19 147 -19 269 -32 398 -41 71 -6 132
-12 137 -15 7 -5 158 -18 350 -32 36 -3 68 -8 73 -12 4 -4 8 -2712 10 -6019 2
-5077 0 -6013 -12 -6017 -7 -3 -68 -10 -135 -16 -66 -5 -164 -17 -216 -25 -52
-8 -122 -14 -155 -15 -33 0 -96 -6 -140 -14 -44 -8 -98 -15 -120 -15 -37 0
-91 -5 -415 -45 -166 -20 -309 -35 -435 -45 -60 -5 -139 -13 -175 -19 -36 -6
-90 -11 -122 -11 -31 0 -92 -7 -135 -15 -43 -8 -105 -15 -138 -15 -33 0 -98
-7 -145 -15 -47 -8 -112 -15 -145 -15 -33 0 -91 -7 -130 -15 -38 -8 -99 -15
-135 -15 -36 -1 -101 -7 -145 -15 -44 -8 -107 -15 -140 -15 -33 0 -105 -7
-160 -15 -55 -8 -122 -15 -150 -15 -27 0 -85 -7 -128 -15 -43 -8 -106 -15
-138 -15 -33 0 -104 -7 -157 -15 -117 -17 -277 -34 -431 -45 -63 -5 -126 -12
-140 -15 -14 -4 -75 -11 -136 -15 -198 -16 -348 -31 -447 -45 -53 -8 -123 -15
-155 -16 -32 0 -80 -4 -108 -10 -27 -5 -99 -13 -159 -18 -102 -9 -141 -13
-371 -41 -50 -6 -142 -15 -205 -20 -64 -4 -143 -13 -175 -19 -64 -11 -223 -28
-395 -41 -58 -4 -125 -13 -150 -19 -25 -6 -83 -11 -130 -11 -47 0 -114 -7
-150 -15 -36 -8 -87 -14 -115 -15 -27 0 -104 -6 -170 -14 -188 -23 -331 -37
-445 -46 -58 -4 -141 -12 -185 -19 -106 -14 -257 -31 -380 -41 -55 -4 -127
-13 -160 -18 -33 -6 -93 -12 -132 -14 l-73 -3 0 6895 c0 3792 0 6899 0 6904 0
5 24 6 53 3 28 -2 106 -10 172 -16z m-384 -6897 c-3 -6336 -5 -6899 -20 -6897
-22 2 -103 19 -176 36 -33 8 -82 20 -110 26 -27 7 -70 17 -95 23 -25 6 -73 14
-107 17 -34 4 -67 11 -73 17 -10 10 -16 13572 -6 13582 3 2 42 9 88 14 46 5
112 16 148 24 36 8 76 14 89 14 14 0 50 6 80 14 65 17 162 34 176 31 7 -1 9
-2306 6 -6901z m-739 6791 c11 -4 13 -1144 10 -6768 l-2 -6762 -39 2 c-22 1
-60 9 -85 17 -26 9 -64 16 -84 16 -21 0 -46 6 -55 13 -16 11 -17 418 -17 6717
0 3688 0 6708 0 6711 0 12 32 19 127 29 52 6 102 14 111 20 21 11 18 11 34 5z
m-2087 -281 c50 -8 125 -22 168 -30 42 -8 89 -14 102 -14 14 0 33 -4 43 -9 9
-6 29 -12 45 -16 40 -8 34 -33 -10 -40 -21 -4 -60 -11 -88 -16 -27 -5 -122
-21 -210 -35 -134 -22 -170 -31 -223 -60 -35 -19 -66 -34 -68 -34 -11 0 -2 80
9 87 25 15 47 58 47 90 0 38 -17 43 -43 13 -9 -11 -24 -20 -32 -20 -8 0 -15
-3 -15 -8 0 -4 -10 -12 -22 -17 -12 -6 -35 -28 -50 -50 l-28 -40 -1 -689 c0
-378 2 -691 5 -694 4 -3 30 4 59 15 28 12 67 24 84 28 18 4 35 11 38 16 4 5
15 9 25 9 11 0 34 6 52 14 55 23 167 63 213 76 17 5 55 18 85 30 30 12 71 26
90 32 19 5 40 14 45 18 6 4 24 10 40 13 17 2 46 10 65 17 66 24 110 40 148 54
20 8 66 23 102 35 36 11 90 30 120 41 30 12 73 26 95 31 22 6 44 14 50 20 5 5
19 9 32 9 12 0 37 6 55 14 55 23 166 63 213 76 71 20 238 83 363 136 65 28 62
41 62 -259 0 -199 -3 -276 -12 -285 -7 -7 -45 -12 -97 -12 -48 0 -122 -7 -166
-15 -44 -8 -104 -14 -134 -15 -30 0 -96 -6 -145 -14 -113 -18 -268 -36 -407
-46 -59 -4 -112 -11 -118 -14 -6 -4 -66 -12 -134 -17 -67 -5 -138 -13 -157
-19 -19 -5 -59 -10 -89 -10 -30 0 -96 -7 -145 -15 -110 -17 -226 -32 -366 -46
-58 -5 -118 -14 -135 -18 -16 -4 -36 -6 -42 -4 -10 4 -13 159 -13 733 0 703 1
730 20 774 24 58 60 91 129 123 38 18 64 23 88 20 27 -5 33 -2 33 12 0 9 -5
22 -12 29 -8 8 -9 12 -1 12 6 0 13 -5 15 -12 3 -8 11 -7 29 6 26 19 33 18 194
-10z m1663 -163 c2 -82 -1 -128 -9 -137 -7 -9 -32 -14 -68 -14 -31 0 -87 -6
-126 -14 -38 -8 -115 -22 -170 -31 -55 -8 -125 -20 -155 -26 -30 -6 -86 -14
-125 -19 -38 -4 -90 -13 -115 -18 -25 -6 -90 -18 -145 -27 -55 -9 -125 -21
-155 -26 -30 -6 -88 -14 -128 -19 -40 -5 -77 -12 -83 -16 -6 -3 -45 -10 -87
-14 -73 -7 -114 -14 -242 -40 -116 -24 -145 -24 -186 3 -53 33 -63 47 -70 99
-7 53 14 108 52 132 30 21 137 46 192 46 24 0 71 6 105 14 63 14 173 31 302
47 39 4 86 13 105 18 19 6 58 11 85 11 28 0 77 7 108 15 32 8 72 15 90 15 18
0 68 6 112 14 44 8 119 22 166 30 48 9 103 16 124 16 20 0 67 6 104 14 36 8
98 20 136 26 39 6 86 15 105 20 76 18 75 19 78 -119z m22 -393 c5 -202 5 -207
-7 -219 -6 -6 -30 -13 -54 -15 -24 -3 -66 -12 -94 -20 -120 -35 -413 -136
-459 -158 -28 -13 -71 -27 -96 -31 -75 -11 -83 -15 -69 -31 11 -13 6 -15 -32
-14 -29 1 -92 -15 -189 -48 -167 -58 -306 -108 -335 -121 -11 -5 -38 -13 -59
-16 -22 -4 -51 -15 -64 -26 -14 -10 -37 -19 -51 -19 -15 0 -31 -4 -36 -9 -6
-5 -35 -16 -65 -24 -30 -9 -100 -31 -155 -50 -131 -46 -156 -49 -171 -19 -8
16 -10 123 -7 370 2 191 6 353 9 361 2 7 11 10 20 7 9 -4 23 -1 30 5 11 9 16
6 24 -15 10 -27 24 -33 35 -16 9 15 35 12 35 -4 0 -8 -6 -17 -12 -20 -27 -12
215 6 289 21 43 9 100 17 128 19 27 2 63 8 79 14 16 5 41 10 55 10 15 0 36 7
49 15 15 12 27 13 40 6 11 -6 24 -6 33 0 7 5 33 9 57 9 23 0 59 7 79 15 20 8
52 14 72 14 20 -1 83 6 141 15 58 10 141 24 185 31 44 8 121 20 171 28 50 8
100 19 111 25 11 6 33 11 49 11 16 0 56 5 89 11 33 6 74 12 92 13 17 1 35 5
39 10 4 4 15 7 24 7 15 0 18 -16 20 -142z m-23 -6811 c3 -5152 1 -5788 -12
-5793 -8 -4 -39 2 -68 11 -28 10 -70 21 -92 25 -22 4 -60 12 -85 18 -25 6 -79
18 -120 27 -41 9 -97 22 -125 30 -55 15 -132 31 -212 44 -28 5 -57 12 -63 16
-6 4 -35 11 -63 16 -73 12 -185 36 -227 47 -19 6 -71 18 -115 27 -44 9 -98 21
-120 27 -22 6 -60 15 -85 19 -59 10 -133 27 -196 45 -28 8 -62 14 -76 14 -14
0 -45 7 -68 15 -23 8 -53 15 -67 15 -13 0 -45 6 -71 14 -87 25 -180 46 -209
46 -15 0 -38 6 -51 13 l-23 12 1 5430 0 5430 37 3 c21 1 82 9 136 17 54 8 116
15 139 15 22 0 86 7 142 14 216 31 343 46 396 46 30 1 84 7 120 15 36 8 94 14
130 15 36 0 110 7 164 15 55 8 124 15 155 15 31 1 92 7 136 15 44 8 112 15
152 15 39 0 84 5 100 11 15 6 81 15 147 21 65 5 128 14 140 18 12 5 28 8 36 7
13 -2 15 -654 17 -5790z m9165 -5362 c6 -14 9 -28 6 -31 -10 -10 -48 20 -48
38 0 27 29 22 42 -7z m-74 -164 c2 -35 -1 -67 -5 -71 -4 -4 -47 -11 -94 -14
-47 -4 -101 -11 -120 -16 -19 -6 -58 -10 -88 -10 -30 0 -96 -7 -145 -15 -125
-20 -242 -34 -369 -45 -59 -5 -112 -12 -118 -16 -6 -3 -61 -10 -122 -14 -62
-4 -148 -13 -192 -19 -92 -12 -251 -31 -310 -37 -22 -2 -87 -11 -145 -19 -155
-22 -272 -35 -390 -45 -58 -4 -118 -13 -133 -19 -16 -6 -49 -11 -75 -11 -26 0
-92 -6 -147 -14 -109 -17 -262 -34 -395 -46 -87 -8 -202 -23 -325 -41 -38 -6
-110 -15 -160 -20 -49 -4 -114 -13 -144 -19 -29 -5 -81 -10 -115 -10 -33 0
-92 -7 -131 -15 -38 -8 -92 -15 -120 -15 -27 0 -92 -6 -145 -14 -112 -17 -268
-38 -325 -42 -22 -2 -92 -11 -155 -19 -63 -7 -178 -21 -255 -30 -77 -9 -176
-21 -220 -26 -44 -6 -120 -15 -170 -20 -49 -5 -108 -13 -130 -19 -22 -5 -69
-10 -105 -10 -36 0 -90 -7 -120 -15 -30 -8 -86 -15 -125 -15 -38 0 -97 -7
-130 -15 -33 -8 -87 -15 -120 -15 -33 -1 -82 -5 -110 -11 -27 -5 -93 -13 -145
-18 -130 -12 -277 -30 -385 -46 -113 -17 -257 -34 -400 -46 -60 -5 -129 -13
-152 -19 -23 -5 -65 -10 -93 -10 -28 0 -83 -6 -123 -14 -40 -8 -112 -17 -162
-20 -49 -3 -121 -12 -159 -20 -102 -22 -106 -18 -99 101 3 54 7 100 9 102 2 2
34 6 71 8 38 2 84 6 103 9 19 3 71 9 115 14 149 14 300 31 410 46 61 8 130 14
154 14 24 0 82 6 130 14 89 15 248 32 434 46 59 4 129 13 155 18 26 6 88 13
137 16 50 3 106 10 125 16 19 5 64 10 100 10 36 0 100 7 143 15 43 8 106 15
140 15 34 1 91 7 127 15 36 8 97 14 137 15 39 0 107 7 150 15 43 8 103 15 133
15 30 1 91 7 135 15 44 8 105 15 135 15 30 1 75 5 100 11 25 5 104 14 175 19
72 5 146 14 165 20 19 5 64 10 99 10 35 0 109 7 165 15 119 17 267 33 426 46
63 5 137 13 163 19 26 5 69 10 94 10 26 0 88 7 137 15 105 17 246 33 396 45
58 5 139 13 180 19 78 11 211 26 365 41 50 5 117 14 150 19 59 10 195 24 392
41 56 4 108 12 114 16 7 4 72 11 144 15 73 4 165 12 206 18 88 12 250 30 369
41 127 11 292 30 405 45 55 8 143 17 195 21 52 3 104 10 115 15 11 4 31 7 45
6 23 -2 25 -6 28 -66z m-10688 -41 c107 -15 127 -21 152 -47 l23 -25 -24 -19
c-13 -10 -29 -19 -37 -19 -8 0 -14 -7 -14 -15 0 -9 -8 -19 -17 -22 -10 -4 -21
-10 -24 -15 -9 -13 -59 16 -59 35 0 11 -6 17 -17 15 -12 -2 -17 3 -16 12 2 9
-15 34 -37 55 -45 44 -53 71 -17 60 12 -3 51 -10 87 -15z m218 -58 c2 -7 -6
-12 -17 -12 -21 0 -27 11 -14 24 9 9 26 2 31 -12z m72 -12 c0 -5 -7 -10 -15
-10 -8 0 -15 5 -15 10 0 6 7 10 15 10 8 0 15 -4 15 -10z m319 -66 c35 -7 32
-24 -4 -24 -32 0 -56 10 -49 21 6 11 12 11 53 3z m10079 -6 c-3 -7 -17 -15
-33 -16 -25 -3 -27 -2 -16 12 16 19 55 22 49 4z m-77 -35 c10 -10 6 -21 -14
-51 -15 -21 -27 -47 -27 -59 0 -11 -7 -26 -15 -33 -8 -7 -15 -19 -15 -27 0 -8
-11 -38 -25 -67 -36 -76 -75 -93 -235 -105 -69 -5 -159 -7 -200 -4 -41 2 -91
4 -110 3 -20 0 -55 6 -79 15 -24 8 -53 15 -64 15 -23 0 -90 71 -108 112 -6 15
-20 30 -30 33 -14 5 -19 16 -19 39 0 32 0 32 51 33 28 0 56 6 62 12 6 6 45 11
86 11 42 0 123 8 181 16 58 9 141 20 185 24 115 12 274 36 280 41 10 10 84 4
96 -8z m-10412 -27 c68 -21 176 -46 201 -46 12 0 42 -6 68 -14 26 -8 97 -24
157 -35 61 -12 128 -25 150 -31 22 -5 76 -16 120 -25 44 -9 100 -21 125 -27
25 -6 65 -14 90 -18 25 -4 65 -12 90 -18 25 -6 81 -19 125 -28 44 -9 98 -20
120 -26 22 -5 60 -13 85 -18 66 -11 150 -30 187 -41 18 -6 54 -14 80 -19 75
-14 152 -30 223 -45 36 -8 79 -16 95 -19 17 -2 48 -9 70 -14 22 -6 76 -18 120
-27 44 -9 105 -23 136 -31 30 -8 69 -14 85 -14 16 0 47 -7 69 -15 22 -8 53
-14 68 -15 16 0 53 -7 83 -16 l55 -16 -3 -86 c-2 -71 -6 -86 -18 -83 -8 2 -46
12 -85 23 -38 10 -83 21 -100 24 -16 3 -52 11 -80 19 -27 8 -86 21 -130 31
-44 9 -100 23 -124 30 -25 8 -58 14 -73 14 -16 0 -37 4 -47 10 -10 5 -43 14
-72 19 -91 15 -171 32 -224 46 -108 29 -142 37 -185 44 -25 4 -63 13 -85 19
-22 6 -76 18 -120 28 -44 9 -102 23 -129 31 -27 7 -67 13 -88 13 -22 0 -47 4
-57 10 -10 5 -43 14 -72 19 -30 6 -81 17 -114 25 -33 7 -80 19 -105 24 -25 6
-67 16 -95 23 -27 6 -72 15 -100 19 -47 7 -98 18 -190 43 -22 5 -60 14 -85 18
-25 4 -63 12 -85 17 -22 6 -76 18 -120 27 -112 24 -110 22 -113 99 -3 66 -3
66 24 66 14 0 47 -6 73 -14z m656 5 c3 -5 0 -13 -5 -16 -15 -9 -60 3 -60 15 0
13 57 13 65 1z m419 -87 c9 -3 16 -10 16 -15 0 -14 -34 -11 -56 6 -19 14 -19
14 3 15 12 0 28 -3 37 -6z m424 -42 c47 -36 43 -58 -15 -66 -32 -4 -49 -2 -54
6 -4 7 -27 14 -51 15 -78 5 -95 27 -29 38 22 3 47 15 56 25 20 22 47 16 93
-18z m422 -92 c0 -6 9 -10 19 -10 27 0 34 -15 19 -40 -13 -21 -62 -28 -73 -10
-3 6 -18 7 -32 4 -25 -7 -43 7 -43 33 0 18 72 50 93 41 9 -5 17 -13 17 -18z
m-310 11 c0 -16 -19 -23 -40 -16 -30 10 -24 25 10 25 17 0 30 -4 30 -9z m184
-22 c-8 -14 -34 -11 -34 4 0 8 3 17 7 20 9 9 34 -13 27 -24z m-74 -8 c0 -12
-21 -19 -37 -13 -22 8 -14 22 12 22 14 0 25 -4 25 -9z m-1610 -61 c14 -5 70
-19 125 -31 55 -12 127 -28 160 -35 33 -8 92 -18 130 -24 151 -21 245 -45 313
-80 44 -23 56 -50 21 -50 -11 0 -39 -11 -63 -24 -42 -23 -52 -24 -284 -27
-178 -3 -244 -1 -253 8 -8 8 -18 9 -29 3 -12 -7 -32 -2 -71 18 -49 25 -55 33
-88 105 -19 42 -41 77 -49 77 -7 0 -10 5 -7 11 4 6 -1 16 -11 23 -11 8 -15 19
-11 30 6 15 15 17 50 11 23 -3 53 -10 67 -15z m2595 -50 c21 -16 50 -30 64
-30 60 0 60 -51 0 -100 -21 -17 -39 -40 -39 -50 0 -11 -3 -20 -6 -20 -14 0
-53 27 -94 65 -25 23 -58 50 -73 59 -38 26 -34 42 21 76 59 37 80 37 127 0z
m60 -430 c28 -26 60 -53 72 -59 27 -14 123 -14 228 -1 44 5 141 17 215 25 74
9 148 21 163 27 59 23 101 -27 57 -67 -12 -10 -18 -26 -15 -35 3 -9 -3 -28
-14 -41 -13 -16 -17 -34 -14 -52 3 -17 1 -27 -6 -27 -6 0 -15 -10 -20 -23 -10
-25 -53 -42 -133 -52 -27 -4 -48 -10 -48 -15 0 -4 -98 -8 -217 -7 -199 1 -221
2 -272 23 -64 25 -121 77 -121 109 0 13 -11 33 -25 46 -18 17 -25 35 -25 62 0
50 12 71 50 87 17 7 30 20 30 30 0 42 28 33 95 -30z"/>
<path d="M12545 15164 c-44 -23 -69 -49 -95 -101 -20 -40 -22 -55 -17 -124 8
-102 43 -161 120 -200 30 -16 54 -19 125 -17 l87 3 3 117 3 117 -46 6 c-58 9
-95 0 -95 -23 0 -26 20 -42 52 -42 28 0 28 -1 28 -60 l0 -60 -46 0 c-99 0
-164 73 -164 183 0 47 5 62 33 99 l33 43 70 -1 c38 0 83 -3 99 -5 27 -4 30 -1
33 24 3 23 -2 30 -32 42 -47 20 -153 19 -191 -1z"/>
<path d="M12829 15149 c-28 -53 41 -96 74 -46 13 20 13 25 -1 45 -19 28 -58
29 -73 1z"/>
<path d="M13233 14905 c-1 -192 1 -216 16 -224 9 -5 61 -11 116 -13 99 -3 100
-3 103 21 5 33 -12 41 -89 41 -37 0 -70 5 -77 12 -15 15 -16 110 -1 125 6 6
37 8 79 5 58 -4 71 -2 76 12 12 31 -15 46 -80 46 -35 0 -67 5 -74 12 -7 7 -12
33 -12 59 0 55 3 57 97 49 70 -6 103 2 103 24 0 35 -26 43 -142 45 l-113 2 -2
-216z"/>
<path d="M12835 15038 c-3 -8 -4 -86 -3 -173 l3 -160 26 -3 c15 -2 28 3 31 10
3 7 2 85 -1 173 -6 156 -7 160 -29 163 -12 2 -24 -3 -27 -10z"/>
<path d="M12943 15043 c-15 -5 -17 -36 -4 -61 9 -17 23 -62 56 -177 27 -94 37
-110 72 -113 32 -3 40 8 63 93 14 49 60 179 71 198 5 10 7 22 4 27 -9 14 -65
12 -69 -2 -2 -7 -11 -42 -21 -78 -32 -123 -58 -160 -71 -102 -26 118 -46 188
-60 204 -18 19 -21 20 -41 11z"/>
<path d="M13514 14823 l1 -168 30 0 30 0 5 123 c5 122 5 124 33 140 25 15 30
15 55 2 l27 -16 3 -132 3 -132 25 -6 c17 -4 29 -2 35 7 6 8 8 74 7 147 l-3
134 -37 34 c-40 36 -82 44 -118 22 -16 -10 -24 -10 -40 0 -11 6 -28 12 -39 12
-18 0 -19 -9 -17 -167z"/>
<path d="M13905 14960 c-55 -22 -85 -83 -85 -171 0 -97 40 -154 118 -169 26
-4 63 -5 82 -1 29 6 35 11 35 31 0 23 -4 25 -45 25 -83 1 -130 29 -130 77 l0
30 83 -7 c111 -9 123 -1 103 75 -23 90 -94 138 -161 110z m87 -68 c4 -4 11
-22 14 -40 l7 -32 -55 0 c-77 0 -100 29 -55 70 16 16 30 20 52 15 16 -3 33 -9
37 -13z"/>
<path d="M14126 14928 c-9 -27 -14 -305 -7 -317 5 -7 19 -11 32 -9 23 3 24 6
27 113 2 95 5 112 24 132 11 12 30 23 42 25 14 2 22 11 24 29 4 34 -22 45 -55
24 -21 -14 -26 -14 -45 0 -27 18 -37 19 -42 3z"/>
<path d="M14331 14903 c-42 -36 -53 -99 -26 -150 15 -28 17 -38 7 -54 -7 -10
-12 -35 -12 -56 0 -20 -6 -44 -14 -52 -7 -9 -16 -29 -20 -44 -6 -24 -1 -34 32
-67 29 -29 49 -40 86 -45 98 -15 166 30 166 110 0 60 -29 84 -115 95 -95 12
-117 50 -28 50 24 0 57 7 73 16 32 19 51 72 43 120 -4 23 -1 33 13 38 9 3 18
5 19 4 9 -11 45 -104 45 -117 0 -9 7 -25 15 -35 8 -11 15 -29 15 -40 0 -12 7
-30 15 -40 32 -43 7 -112 -51 -140 -59 -28 -35 -91 25 -66 51 21 76 59 116
176 15 44 31 84 34 89 4 6 16 33 26 60 9 28 24 65 32 82 18 38 12 63 -15 63
-42 0 -69 -53 -89 -173 -6 -42 -21 -57 -34 -36 -5 8 -21 52 -36 99 -14 47 -32
91 -39 98 -7 8 -40 15 -83 18 -40 2 -80 8 -91 14 -33 18 -74 11 -109 -17z
m121 -50 c38 -35 12 -113 -39 -113 -49 0 -79 62 -53 111 13 24 66 26 92 2z
m20 -280 c59 -53 -46 -113 -117 -67 -35 23 -32 72 5 87 24 10 93 -2 112 -20z"/>
<path d="M11785 10359 c-33 -4 -249 -13 -480 -19 -733 -20 -776 -22 -807 -45
-46 -35 -61 -81 -57 -186 l4 -94 -67 -3 c-90 -4 -95 -13 -92 -186 2 -156 6
-161 97 -161 l62 0 -3 -89 c-5 -122 17 -173 87 -202 30 -13 82 -13 361 -4 179
6 422 15 540 21 118 6 294 13 390 16 191 6 203 10 242 74 17 27 18 60 18 417
-1 385 -1 387 -23 413 -52 60 -110 70 -272 48z m190 -93 c19 -14 20 -28 23
-353 2 -186 0 -353 -3 -371 -4 -22 -14 -36 -30 -42 -13 -5 -169 -14 -347 -20
-178 -6 -402 -15 -498 -20 -96 -6 -261 -13 -366 -17 l-190 -6 -22 28 c-22 27
-22 33 -22 377 l0 349 25 24 c20 21 34 25 87 25 109 1 747 21 883 28 277 15
439 14 460 -2z"/>
<path d="M11662 10131 c-11 -6 -14 -57 -14 -238 0 -127 3 -240 7 -252 5 -18
14 -21 65 -21 46 0 61 4 69 18 5 9 11 120 12 246 3 215 2 229 -16 242 -21 15
-102 19 -123 5z"/>
<path d="M11347 10112 c-15 -16 -17 -49 -17 -251 l0 -231 26 -10 c33 -13 90
-13 115 0 18 10 19 24 19 248 0 172 -3 241 -12 250 -20 20 -112 15 -131 -6z"/>
<path d="M11051 10107 l-24 -12 0 -236 c0 -130 4 -242 7 -248 10 -15 107 -13
129 3 15 12 17 36 17 248 l0 235 -25 11 c-33 15 -74 15 -104 -1z"/>
<path d="M10770 10103 c-25 -3 -49 -8 -54 -13 -14 -14 -11 -467 4 -485 8 -10
31 -15 71 -15 47 0 60 4 69 19 6 12 10 109 10 245 0 221 0 225 -22 240 -12 9
-25 15 -28 14 -3 -1 -25 -3 -50 -5z"/>
<path d="M7832 5250 c-18 -11 -35 -28 -38 -38 -8 -23 -82 -171 -129 -257 -38
-69 -107 -206 -119 -235 -3 -8 -16 -31 -27 -50 -24 -39 -136 -252 -329 -625
-23 -44 -45 -87 -49 -95 -4 -8 -12 -24 -18 -35 -5 -11 -38 -73 -72 -138 -53
-102 -61 -122 -55 -153 12 -63 34 -70 192 -55 76 7 189 17 252 21 63 4 158 13
210 19 153 18 316 32 450 41 69 4 145 13 170 19 25 6 87 11 138 11 51 0 112 4
135 10 23 5 64 12 90 15 44 6 50 10 64 43 12 30 13 43 3 77 -7 22 -17 46 -22
53 -14 17 -49 80 -102 182 -24 47 -53 101 -64 120 -12 19 -32 58 -47 85 -14
28 -29 57 -34 65 -5 8 -12 22 -16 30 -3 8 -21 42 -40 75 -18 33 -54 101 -79
150 -26 50 -66 126 -91 170 -25 44 -63 116 -85 160 -23 44 -57 107 -76 140
-18 33 -45 83 -59 112 -28 55 -75 103 -103 103 -9 0 -32 -9 -50 -20z m54 -158
c6 -4 43 -69 82 -144 39 -75 82 -154 95 -175 13 -21 41 -72 61 -113 21 -41 49
-95 63 -120 14 -25 45 -83 70 -130 25 -47 58 -107 73 -135 32 -59 127 -237
148 -280 9 -16 33 -56 54 -88 21 -32 38 -69 38 -83 0 -23 -2 -24 -82 -25 -46
0 -110 -5 -143 -9 -33 -5 -127 -14 -209 -20 -81 -6 -153 -13 -158 -16 -5 -3
-69 -10 -141 -14 -151 -9 -336 -25 -482 -42 -168 -19 -225 -21 -225 -8 0 7 13
31 28 54 15 22 38 61 50 86 13 25 27 52 31 60 4 8 13 25 19 36 67 131 145 279
171 322 17 29 31 57 31 61 0 4 12 30 26 57 14 27 42 81 61 119 19 39 39 77 44
85 5 8 20 38 35 65 14 28 54 104 89 170 89 168 123 236 134 268 11 28 18 32
37 19z"/>
<path d="M7818 4764 c-9 -3 -27 -21 -38 -39 -20 -33 -21 -39 -9 -187 6 -84 13
-202 16 -263 4 -94 7 -113 25 -132 26 -28 68 -30 99 -4 23 19 24 27 36 248 7
125 15 251 19 278 8 70 -14 96 -82 101 -27 1 -57 0 -66 -2z"/>
<path d="M7847 4043 c-29 -5 -87 -72 -87 -101 0 -28 41 -80 71 -91 57 -20 139
39 139 99 0 29 -38 90 -55 90 -7 0 -19 2 -27 3 -7 2 -26 2 -41 0z"/>
</g>
</svg>
