<?xml version="1.0" standalone="no"?>
<!DOCTYPE svg PUBLIC "-//W3C//DTD SVG 20010904//EN"
 "http://www.w3.org/TR/2001/REC-SVG-20010904/DTD/svg10.dtd">
<svg version="1.0" xmlns="http://www.w3.org/2000/svg"
 width="1800.000000pt" height="1800.000000pt" viewBox="0 0 1800.000000 1800.000000"
 preserveAspectRatio="xMidYMid meet">
<g transform="translate(0.000000,1800.000000) scale(0.100000,-0.100000)"
fill="#000000" stroke="none">
<path d="M5030 17565 c-8 -2 -62 -9 -120 -15 -192 -21 -329 -71 -456 -165 -39
-29 -93 -65 -120 -79 -71 -37 -325 -190 -413 -248 -14 -10 -33 -21 -41 -25 -8
-3 -33 -18 -55 -32 -22 -14 -58 -35 -80 -46 -22 -12 -67 -39 -100 -61 -33 -21
-76 -47 -95 -57 -19 -11 -53 -31 -75 -46 -23 -14 -63 -37 -90 -51 -74 -38
-206 -168 -240 -237 -49 -102 -56 -162 -58 -540 l-2 -345 -43 -39 c-24 -21
-81 -63 -125 -94 -45 -30 -100 -68 -122 -84 -22 -16 -70 -50 -106 -75 -98 -68
-140 -107 -182 -169 -52 -75 -76 -142 -98 -272 -18 -105 -19 -199 -19 -1910 0
-1622 2 -1809 16 -1890 18 -96 38 -144 97 -225 10 -14 71 -79 135 -146 64 -66
144 -149 177 -185 l59 -64 -2 -1392 c-2 -1328 -3 -1394 -20 -1422 -10 -17 -38
-52 -63 -79 -24 -27 -69 -77 -99 -112 -30 -35 -76 -87 -101 -116 -62 -69 -122
-158 -147 -219 -50 -121 -52 -169 -48 -1035 3 -443 5 -1261 6 -1819 1 -683 4
-1031 12 -1065 29 -136 107 -217 379 -389 58 -37 108 -67 112 -67 3 0 35 -20
71 -45 37 -25 70 -45 75 -45 4 0 16 -8 25 -19 15 -17 17 -55 16 -408 0 -271 3
-399 11 -423 18 -55 71 -112 166 -182 85 -63 168 -108 202 -108 9 0 25 -7 35
-15 11 -8 27 -15 37 -15 9 0 50 -14 90 -31 41 -17 91 -37 112 -45 20 -8 54
-20 75 -28 20 -8 57 -22 82 -31 25 -9 62 -23 83 -31 64 -24 121 -46 154 -60
17 -8 37 -14 45 -14 7 0 22 -7 32 -15 11 -8 29 -15 41 -15 12 0 25 -4 31 -8 5
-4 36 -18 69 -31 33 -12 75 -29 93 -37 18 -8 41 -14 51 -14 10 0 36 -7 57 -17
33 -14 77 -16 299 -15 149 1 326 8 415 16 85 9 189 16 231 16 73 0 76 -1 90
-27 7 -16 25 -46 39 -68 13 -22 29 -48 35 -57 39 -65 89 -129 117 -150 43 -32
96 -58 119 -58 10 0 33 -6 51 -14 18 -8 60 -22 93 -31 94 -28 166 -50 296 -91
53 -16 71 -16 235 -5 256 19 365 27 479 40 55 5 157 13 227 17 171 8 170 7
192 161 9 65 21 146 26 179 6 34 13 97 16 140 4 51 13 90 26 112 l20 32 103 0
c57 0 139 7 182 15 43 8 103 15 133 15 50 0 155 10 420 40 52 6 154 15 225 20
72 5 162 13 200 19 39 6 99 11 135 11 36 0 106 7 155 15 50 8 117 15 150 15
33 0 107 6 165 15 180 25 373 45 430 45 30 0 102 6 160 15 101 14 231 27 464
45 59 5 130 14 158 19 27 6 79 11 116 11 37 0 105 7 152 15 47 8 110 15 140
15 30 0 107 6 170 14 128 17 290 33 455 46 61 5 137 14 170 19 33 6 87 11 120
11 33 0 98 7 145 15 47 8 110 15 140 15 30 0 82 5 115 11 33 5 105 14 160 18
55 5 145 14 200 20 55 6 170 18 255 27 85 9 193 20 240 25 263 30 367 41 470
49 63 5 135 13 160 19 25 6 72 11 105 11 33 0 119 7 190 15 209 26 355 44 435
55 41 6 113 15 158 20 46 6 87 12 91 14 3 2 41 9 84 15 127 18 256 92 288 164
5 12 13 29 17 37 28 49 35 73 53 177 19 112 19 203 18 3936 -2 4911 -14 9106
-27 9218 -5 47 -14 95 -21 107 -6 11 -11 31 -11 44 0 13 -7 33 -15 44 -8 10
-15 29 -15 41 0 12 -4 24 -9 27 -5 4 -19 25 -30 49 -30 61 -92 129 -160 175
-60 42 -202 112 -224 112 -7 0 -17 4 -23 8 -17 16 -213 70 -354 97 -47 9 -107
23 -134 31 -26 8 -59 14 -73 14 -14 0 -52 6 -86 14 -90 21 -197 44 -232 50
-16 2 -70 12 -120 21 -49 9 -124 22 -165 30 -41 7 -102 18 -135 25 -33 6 -96
18 -140 26 -44 8 -111 22 -150 30 -38 8 -81 14 -95 14 -25 0 -152 20 -260 42
-30 6 -80 14 -110 18 -88 12 -251 39 -300 49 -63 13 -174 32 -245 40 -33 4
-87 13 -120 19 -57 10 -125 22 -350 57 -171 27 -288 46 -344 57 -29 5 -90 14
-135 18 -107 12 -280 37 -481 71 -33 6 -94 14 -135 19 -90 10 -203 26 -325 45
-101 16 -240 35 -330 45 -33 4 -96 13 -140 19 -44 6 -132 19 -195 27 -63 9
-153 22 -200 30 -47 8 -103 14 -125 14 -22 0 -56 5 -76 10 -20 6 -83 14 -140
20 -108 9 -193 20 -364 45 -55 8 -113 15 -130 15 -16 0 -73 6 -125 14 -218 34
-260 39 -355 46 -55 4 -138 13 -185 19 -207 29 -308 41 -340 41 -19 0 -78 6
-130 14 -146 23 -307 41 -560 65 -69 7 -173 19 -232 27 -59 8 -131 14 -160 14
-29 0 -71 5 -93 10 -22 6 -92 14 -155 19 -63 5 -151 14 -195 20 -155 20 -271
32 -390 41 -66 5 -151 14 -190 19 -62 9 -387 13 -425 6z m-140 -184 c0 -11 -8
-22 -18 -25 -42 -14 -157 -153 -175 -211 -3 -11 -15 -46 -26 -78 -11 -32 -25
-86 -32 -120 -13 -70 -14 -2733 -3 -8243 l7 -3232 -21 -11 c-29 -16 -95 -14
-118 4 -10 8 -31 15 -45 15 -14 0 -32 6 -41 13 -14 11 -16 529 -19 5742 l-4
5730 23 58 c74 191 171 287 357 353 81 28 115 30 115 5z m560 9 c74 -6 169
-14 210 -20 41 -5 147 -16 235 -25 88 -9 207 -23 265 -31 58 -8 128 -14 156
-14 28 0 75 -5 105 -10 31 -6 112 -15 180 -20 121 -9 221 -20 364 -41 39 -6
113 -14 165 -19 52 -5 115 -13 140 -19 25 -6 70 -11 100 -11 30 0 82 -5 115
-11 33 -6 103 -14 155 -19 108 -9 247 -26 334 -41 32 -6 104 -14 160 -19 56
-5 119 -14 141 -19 22 -6 65 -11 95 -11 30 0 84 -7 120 -15 36 -8 88 -15 115
-15 28 0 70 -5 95 -11 25 -6 83 -14 130 -19 85 -8 184 -21 315 -41 39 -6 104
-15 145 -19 111 -12 238 -30 300 -41 30 -6 96 -15 145 -20 50 -5 108 -13 130
-19 22 -5 63 -10 90 -10 28 0 79 -7 115 -15 36 -8 84 -14 107 -15 23 0 68 -7
100 -15 31 -8 80 -15 108 -15 27 0 75 -7 105 -15 30 -8 73 -15 95 -15 22 0 76
-7 120 -15 44 -8 134 -22 200 -30 66 -9 152 -23 190 -31 39 -8 87 -14 107 -14
21 0 70 -6 110 -14 40 -8 125 -22 188 -31 156 -21 291 -43 375 -61 39 -8 91
-14 116 -14 25 0 59 -5 75 -10 16 -6 58 -14 94 -19 120 -17 249 -40 287 -50
21 -6 54 -11 73 -11 19 0 68 -6 110 -14 191 -37 247 -46 270 -46 14 0 43 -7
65 -15 22 -8 61 -14 86 -15 25 0 68 -7 95 -15 27 -8 62 -15 78 -15 27 0 119
-16 271 -46 39 -7 95 -18 125 -24 30 -7 84 -15 120 -20 36 -4 85 -12 110 -18
25 -6 83 -18 130 -27 47 -9 113 -22 147 -30 34 -8 73 -15 87 -15 15 0 52 -6
84 -14 31 -8 93 -22 137 -31 287 -59 392 -104 500 -211 71 -70 95 -110 128
-210 16 -48 17 -400 17 -5004 0 -2724 -1 -4955 -3 -4957 -3 -2 -159 -6 -348
-9 -189 -3 -411 -9 -494 -15 -82 -5 -298 -14 -478 -19 -181 -5 -332 -12 -336
-15 -4 -2 -206 -9 -447 -15 -241 -6 -500 -15 -574 -20 -74 -5 -225 -10 -335
-10 -110 -1 -292 -5 -405 -10 -113 -6 -353 -12 -535 -16 -181 -3 -463 -10
-625 -15 -162 -5 -506 -13 -765 -19 -258 -5 -609 -14 -780 -19 -170 -6 -506
-13 -745 -16 -239 -3 -457 -8 -485 -10 -27 -3 -374 -10 -770 -15 -396 -5 -871
-14 -1055 -19 -540 -16 -1150 -20 -1149 -7 0 6 -2 2578 -6 5716 -6 6066 -8
5750 36 5870 26 68 102 171 159 213 145 109 233 127 510 107z m-1125 -250 c4
-6 0 -23 -8 -39 -8 -16 -12 -41 -10 -55 6 -29 -20 -47 -40 -27 -6 6 -24 11
-40 11 -26 0 -29 3 -23 23 3 12 6 28 6 35 0 6 6 12 14 12 8 0 28 11 43 25 30
26 48 31 58 15z m-109 -187 c-3 -16 -11 -59 -19 -98 -14 -74 -13 -73 -112
-125 -11 -6 -33 -19 -50 -30 -16 -11 -39 -24 -51 -29 -12 -5 -48 -27 -80 -48
-74 -47 -95 -60 -114 -69 -8 -4 -46 -27 -83 -51 -37 -23 -70 -43 -73 -43 -3 0
-39 -20 -80 -45 -40 -25 -77 -45 -81 -45 -18 -1 -61 -47 -67 -72 -3 -15 -11
-219 -16 -455 -13 -565 -13 -7138 1 -7753 5 -256 12 -919 16 -1473 4 -736 8
-1009 17 -1011 6 -2 47 -11 91 -21 84 -18 148 -35 238 -60 30 -8 64 -15 76
-15 12 0 31 -5 42 -11 11 -6 41 -14 67 -19 50 -10 133 -30 222 -54 61 -17 79
-21 260 -66 120 -30 131 -31 312 -29 103 2 191 0 195 -4 3 -4 8 -830 11 -1835
2 -1005 5 -1828 6 -1829 10 -12 578 11 681 27 33 6 103 10 155 10 52 0 124 5
160 10 36 6 135 15 220 20 151 9 277 19 510 41 63 7 178 15 255 19 144 8 338
23 530 41 61 6 176 14 257 19 81 5 153 12 159 15 6 4 79 11 162 15 148 9 268
18 527 41 69 7 181 15 250 19 69 4 172 12 230 19 58 6 173 16 255 22 277 20
360 27 425 38 36 6 106 11 155 12 50 0 117 5 150 10 33 5 128 13 210 19 83 5
174 14 204 20 29 5 81 10 115 10 33 0 122 7 196 15 142 15 325 31 525 45 66 4
158 13 205 19 153 19 404 41 460 41 30 0 84 5 120 11 36 5 133 14 215 19 83 5
182 13 220 19 75 11 224 27 400 41 60 5 116 12 125 16 8 3 80 10 160 14 80 5
161 14 180 20 19 5 73 10 120 10 47 0 117 5 155 11 85 12 320 37 470 49 61 5
132 14 158 20 26 5 77 10 111 10 35 0 99 6 142 14 72 13 244 29 336 31 21 0
41 5 45 10 5 6 6 690 3 1520 -3 831 -3 1518 -1 1528 3 14 15 17 77 17 52 0 74
-4 75 -12 1 -7 0 -119 -1 -248 -1 -129 4 -786 10 -1460 13 -1303 11 -1372 -31
-1429 -37 -51 -121 -69 -409 -91 -69 -5 -149 -14 -179 -20 -29 -5 -77 -10
-105 -10 -28 0 -107 -7 -176 -15 -161 -19 -328 -35 -410 -41 -36 -2 -123 -11
-195 -19 -158 -18 -322 -33 -475 -45 -63 -5 -149 -14 -190 -19 -83 -11 -257
-28 -425 -41 -60 -5 -150 -14 -200 -19 -142 -17 -289 -31 -430 -42 -71 -5
-149 -14 -172 -19 -23 -6 -72 -10 -110 -10 -37 -1 -99 -5 -138 -10 -38 -6
-126 -14 -195 -19 -69 -6 -170 -15 -225 -21 -55 -6 -143 -15 -195 -21 -52 -6
-149 -14 -215 -19 -66 -4 -158 -13 -205 -19 -104 -13 -278 -29 -465 -41 -77
-6 -162 -15 -188 -20 -26 -6 -78 -10 -115 -10 -37 0 -112 -7 -167 -15 -55 -8
-129 -15 -165 -15 -36 0 -119 -6 -185 -15 -120 -14 -325 -35 -420 -41 -45 -4
-136 -12 -500 -45 -66 -6 -181 -14 -255 -19 -74 -5 -169 -13 -210 -19 -41 -6
-145 -15 -230 -21 -85 -6 -211 -15 -280 -20 -69 -5 -156 -14 -195 -19 -38 -6
-108 -11 -155 -11 -47 0 -140 -7 -205 -15 -66 -8 -147 -15 -180 -15 -33 0
-121 -6 -195 -15 -74 -8 -225 -21 -335 -29 -110 -9 -263 -20 -340 -26 -427
-33 -645 -34 -703 -4 -15 7 -35 14 -45 14 -23 0 -56 72 -57 120 0 19 -4 49 -9
66 -6 21 -26 3329 -21 3482 0 9 -23 12 -85 12 -81 0 -85 -1 -91 -24 -3 -14 -3
-29 0 -34 10 -16 15 -410 26 -1757 5 -704 11 -1430 12 -1613 l3 -334 -28 -24
c-58 -50 -132 -20 -156 65 -10 34 -12 300 -10 1205 2 985 0 1161 -11 1161 -8
0 -19 -17 -25 -37 -5 -20 -13 -40 -18 -44 -4 -4 -7 -13 -7 -21 0 -22 -96 -266
-137 -345 -7 -14 -13 -33 -13 -41 0 -9 -6 -28 -14 -44 -14 -26 -57 -132 -93
-228 -9 -22 -21 -53 -28 -70 -7 -16 -18 -43 -25 -60 -26 -65 -37 -80 -63 -90
-21 -7 -35 -6 -55 6 -36 19 -40 60 -12 118 44 94 59 128 109 254 41 102 91
227 102 252 100 240 146 354 171 415 16 41 37 91 45 110 9 19 22 51 31 70 8
19 21 48 28 63 11 23 14 127 14 547 0 589 11 522 -92 540 -29 6 -78 17 -108
26 -30 9 -75 20 -100 26 -25 5 -67 16 -95 23 -48 13 -90 24 -222 59 -60 15
-121 30 -223 55 -25 6 -73 18 -107 28 -34 9 -64 15 -67 13 -2 -3 0 -131 5
-285 5 -154 13 -755 19 -1335 6 -580 15 -1149 20 -1265 5 -115 10 -305 10
-421 l0 -211 38 -26 c51 -36 126 -67 288 -122 38 -13 96 -35 128 -49 32 -14
66 -26 75 -26 9 0 21 -4 27 -8 5 -5 30 -17 56 -26 27 -10 48 -21 49 -24 4 -32
6 -110 2 -124 -6 -23 -12 -23 -91 8 -37 14 -85 32 -107 41 -22 8 -53 20 -70
27 -41 18 -96 37 -120 42 -53 13 -132 40 -150 51 -11 7 -29 13 -40 13 -11 0
-29 6 -40 14 -11 7 -32 16 -47 20 -37 9 -113 84 -127 126 -9 24 -14 174 -17
490 -2 250 -9 610 -14 800 -9 321 -26 1675 -34 2660 -48 6092 -56 8181 -36
9215 5 264 12 658 16 875 7 386 7 396 30 441 33 67 68 104 132 141 31 18 66
38 77 45 11 7 29 17 40 23 11 6 34 19 50 29 17 11 47 29 67 40 21 11 57 33 80
48 62 40 81 51 103 62 11 5 37 21 58 35 21 14 40 26 42 26 6 0 129 73 135 80
3 3 23 17 45 30 22 13 42 27 45 30 6 9 31 18 49 19 9 1 12 -7 7 -26z m54 -257
c0 -8 -7 -21 -15 -29 -12 -13 -12 -16 7 -20 17 -5 19 -10 12 -29 -11 -29 -11
-1832 -1 -6995 6 -2917 5 -4048 -3 -4063 -12 -23 -50 -26 -115 -9 -22 6 -65
16 -95 24 -30 7 -98 24 -150 38 -52 13 -108 25 -125 25 -16 0 -52 10 -79 22
-34 16 -58 20 -82 15 -29 -5 -34 -3 -34 13 0 11 -7 23 -15 26 -9 3 -23 22 -31
42 -13 31 -16 123 -19 583 -7 815 -14 1554 -22 2236 -9 691 -8 6307 0 6980 8
542 14 685 33 685 8 0 14 6 14 13 0 15 57 67 74 67 7 0 21 9 30 19 11 12 25
17 34 14 11 -5 14 -2 9 10 -5 14 0 17 22 17 20 0 30 6 34 19 2 10 17 21 33 25
28 7 112 53 219 121 28 17 67 39 88 49 20 9 37 21 37 26 0 5 9 12 21 15 11 4
33 19 47 34 38 39 72 52 72 27z m-1152 -1279 c3 -52 -4 -56 -51 -34 -29 13
-29 36 1 70 27 31 47 17 50 -36z m-67 -114 c5 -60 -4 -119 -18 -128 -60 -38
-253 -187 -271 -209 -46 -60 -46 -33 -38 -1251 4 -632 13 -1470 19 -1861 l12
-711 30 -39 c32 -42 44 -54 148 -146 67 -60 67 -61 67 -113 0 -33 -5 -55 -12
-57 -7 -3 -49 23 -94 56 -45 34 -114 84 -153 111 -44 31 -85 70 -107 103 -65
96 -63 30 -61 2037 l2 1800 29 60 c47 96 74 124 196 203 63 42 133 89 155 106
71 56 94 65 96 39z m63 -240 c4 -10 6 -353 4 -763 -1 -410 -1 -1326 1 -2036 3
-1026 2 -1292 -8 -1299 -20 -12 -50 11 -131 100 -81 89 -105 136 -115 230 -3
33 -8 330 -10 660 -2 330 -6 1105 -10 1721 -8 1288 -15 1182 83 1275 32 30 70
60 85 68 15 8 34 25 42 38 18 27 50 30 59 6z m-24 -4133 c0 -21 -24 -28 -35
-10 -8 14 3 30 21 30 8 0 14 -9 14 -20z m18 -142 c6 -9 12 -335 16 -943 3
-511 9 -1200 12 -1530 4 -330 7 -755 8 -945 5 -929 19 -2352 31 -3045 3 -159
7 -495 10 -746 6 -528 1 -568 -59 -465 -21 36 -30 43 -47 39 -18 -5 -21 -3
-17 13 3 12 -4 26 -20 39 -14 11 -48 43 -77 70 -72 69 -75 85 -75 437 0 161
-5 516 -10 788 -15 785 -21 1325 -22 1890 l-1 525 56 109 c65 125 74 159 57
213 -15 48 -106 137 -137 134 -31 -3 -38 17 -14 43 12 12 21 26 21 30 0 4 19
33 43 64 54 71 93 141 102 184 4 18 8 642 8 1388 l1 1356 -24 50 c-51 104
-134 214 -163 214 -28 0 -19 27 12 40 24 9 34 9 53 -3 51 -32 77 -30 137 10
31 21 58 41 59 46 6 11 28 8 40 -5z m-312 -24 c-3 -9 -6 -20 -6 -25 0 -13 -27
-11 -36 3 -4 6 1 17 11 25 25 18 39 17 31 -3z m79 -3540 c-7 -79 -10 -88 -41
-122 -97 -105 -109 -170 -100 -537 4 -148 11 -702 17 -1230 5 -528 13 -1202
18 -1497 10 -636 -8 -565 170 -694 126 -92 123 -88 119 -142 -4 -63 -22 -64
-106 -8 -38 25 -79 50 -93 56 -48 22 -147 88 -174 116 -29 30 -56 86 -66 136
-5 24 -13 529 -18 1123 -6 594 -13 1395 -17 1780 -6 626 -5 706 9 755 19 65
61 131 129 203 26 29 65 73 86 99 20 26 45 47 55 48 17 0 18 -6 12 -86z
m12265 -1600 c0 -14 -4 -23 -10 -19 -5 3 -10 15 -10 26 0 10 5 19 10 19 6 0
10 -12 10 -26z m-334 -37 c3 -3 -2 -22 -10 -42 -14 -33 -16 -195 -16 -1462 l0
-1424 -24 -24 c-15 -14 -40 -25 -67 -29 -24 -3 -102 -12 -174 -21 -71 -9 -184
-22 -250 -30 -221 -27 -309 -36 -390 -38 -44 -2 -156 -11 -250 -20 -93 -10
-305 -31 -470 -47 -165 -17 -363 -37 -440 -46 -77 -9 -160 -17 -185 -19 -25
-1 -76 -7 -115 -14 -83 -13 -311 -33 -374 -32 -24 1 -49 -3 -56 -9 -6 -5 -41
-9 -76 -8 -79 2 -265 -10 -339 -22 -30 -5 -92 -12 -138 -14 -45 -3 -90 -9
-100 -14 -9 -5 -63 -10 -119 -11 -55 0 -177 -8 -270 -16 -92 -8 -249 -22 -348
-30 -99 -8 -254 -21 -345 -30 -91 -8 -244 -22 -340 -30 -213 -18 -260 -22
-375 -35 -49 -6 -139 -13 -200 -16 -60 -2 -135 -10 -165 -16 -30 -6 -93 -12
-140 -13 -47 -1 -146 -7 -220 -14 -74 -7 -170 -14 -213 -15 -42 -2 -128 -9
-190 -15 -103 -10 -318 -27 -652 -51 -71 -5 -148 -12 -170 -15 -69 -9 -373
-33 -555 -45 -96 -6 -211 -15 -255 -20 -44 -5 -132 -12 -195 -16 -63 -3 -132
-8 -152 -10 -71 -7 -113 -11 -263 -23 -82 -7 -159 -14 -170 -17 -11 -2 -66 -6
-121 -8 -56 -2 -110 -8 -120 -14 -11 -6 -55 -8 -111 -5 -51 3 -139 1 -195 -5
-252 -28 -349 -25 -373 12 -12 18 -15 306 -21 1767 -7 1727 -6 1747 13 1757
20 11 185 17 788 27 182 3 404 8 495 10 91 2 462 9 825 15 363 5 962 17 1330
25 369 8 787 17 930 20 143 3 492 12 775 20 283 8 715 19 960 25 245 5 567 15
715 21 417 16 575 21 635 20 31 -1 170 3 310 9 346 14 468 18 720 26 118 3
242 8 275 10 33 2 137 7 230 10 94 3 240 9 325 14 157 8 417 7 426 -3z
m-11191 -286 c3 -6 23 -9 45 -9 21 0 45 -6 53 -13 8 -8 88 -31 178 -52 396
-92 402 -94 412 -162 3 -16 4 -217 3 -445 l-2 -415 -27 -64 c-15 -36 -27 -76
-27 -91 0 -14 -8 -37 -17 -50 -30 -42 -73 -141 -79 -179 -3 -20 -13 -47 -23
-61 -10 -14 -22 -37 -26 -50 -4 -14 -11 -29 -15 -35 -4 -5 -31 -68 -59 -140
-28 -71 -55 -137 -60 -145 -5 -9 -12 -30 -15 -48 -4 -17 -12 -34 -17 -37 -5
-4 -9 -19 -9 -35 0 -16 -4 -31 -9 -34 -4 -3 -19 -34 -31 -68 -13 -35 -27 -67
-32 -72 -4 -6 -8 -22 -8 -38 0 -15 -7 -31 -17 -37 -14 -7 -18 -23 -18 -68 0
-53 4 -63 39 -106 39 -48 99 -87 133 -87 25 0 120 65 134 92 7 13 18 29 26 36
7 7 13 19 13 26 0 8 7 19 15 26 8 7 15 27 15 46 0 23 6 37 20 44 10 6 23 25
28 44 11 38 40 76 59 76 9 0 13 -13 13 -37 -4 -260 4 -1496 10 -1548 13 -122
68 -235 122 -254 19 -7 26 -15 22 -25 -8 -21 -22 -20 -68 8 -21 14 -45 22 -53
19 -7 -3 -21 1 -31 9 -9 7 -35 20 -57 27 -22 7 -60 22 -84 33 -42 19 -43 21
-37 56 3 20 10 38 16 40 21 7 70 57 70 72 0 8 7 23 14 33 22 29 -8 131 -43
142 -11 3 -23 15 -26 26 -4 10 -19 26 -34 33 -15 8 -33 22 -40 30 -8 9 -22 16
-34 16 -11 0 -35 10 -54 21 -19 12 -49 25 -66 30 -30 7 -186 66 -268 101 -45
19 -106 104 -92 128 5 9 6 111 2 250 -4 129 -10 431 -13 670 -3 239 -8 572
-12 740 -3 168 -6 517 -6 775 0 298 -4 475 -10 482 -7 9 -6 51 2 129 13 133
16 141 38 147 28 8 31 7 37 -2z m665 -2122 c0 -11 -4 -17 -10 -14 -5 3 -10 13
-10 21 0 8 5 14 10 14 6 0 10 -9 10 -21z m-1090 -220 c11 -20 12 -238 2 -268
-4 -11 -7 -11 -17 2 -6 9 -35 34 -64 55 -92 70 -100 102 -35 143 21 13 33 27
30 35 -3 8 1 14 8 14 7 0 21 9 31 20 23 25 32 25 45 -1z m11850 -719 c0 -13
-38 -32 -50 -25 -9 5 -84 -14 -138 -36 -13 -5 -64 -12 -115 -15 -50 -3 -95 -8
-100 -11 -13 -8 -192 -35 -266 -39 -35 -3 -71 -9 -80 -14 -9 -4 -75 -11 -145
-15 -70 -3 -156 -12 -190 -20 -33 -8 -96 -15 -138 -15 -42 0 -89 -5 -105 -11
-15 -6 -77 -13 -138 -15 -60 -2 -180 -13 -265 -24 -201 -26 -291 -36 -480 -55
-85 -8 -175 -18 -200 -21 -25 -2 -74 -7 -110 -10 -36 -3 -101 -11 -145 -19
-44 -7 -87 -13 -95 -13 -57 1 -249 -15 -265 -22 -11 -5 -87 -14 -170 -20 -82
-5 -179 -15 -215 -20 -36 -6 -114 -13 -174 -15 -59 -3 -113 -8 -118 -11 -6 -4
-56 -10 -112 -15 -97 -7 -394 -36 -616 -59 -58 -6 -157 -17 -220 -25 -63 -8
-157 -17 -209 -19 -51 -3 -96 -8 -99 -11 -3 -3 -28 -5 -56 -5 -28 0 -80 -5
-116 -12 -36 -6 -90 -12 -120 -14 -154 -9 -213 -15 -300 -30 -52 -9 -129 -17
-170 -18 -100 -3 -322 -24 -387 -37 -29 -6 -56 -8 -60 -6 -5 3 -73 -1 -153 -9
-80 -7 -194 -18 -255 -24 -60 -5 -150 -14 -200 -19 -49 -5 -146 -15 -215 -21
-388 -35 -456 -46 -499 -78 -15 -11 -36 -22 -48 -26 -12 -4 -23 -17 -25 -29
-2 -13 -9 -21 -18 -20 -22 4 -64 -89 -56 -122 4 -14 2 -25 -4 -25 -5 0 -10
-14 -10 -32 0 -21 -9 -41 -27 -60 -30 -32 -54 -36 -74 -12 -10 12 -23 14 -52
10 -22 -4 -44 -3 -51 2 -6 4 -56 5 -111 1 -55 -5 -190 -11 -300 -14 -110 -4
-218 -11 -240 -17 -28 -7 -58 -28 -99 -68 l-58 -59 3 -78 4 -78 -39 3 c-22 2
-49 8 -60 14 -12 6 -34 14 -50 17 -37 8 -43 23 -14 36 14 6 29 27 37 50 19 57
-11 215 -50 260 -14 16 -29 39 -33 50 -4 11 -26 35 -49 54 -38 30 -47 33 -93
29 -60 -5 -124 -49 -124 -85 0 -15 -5 -21 -14 -17 -19 7 -28 -23 -14 -46 10
-16 9 -22 -5 -32 -15 -12 -15 -16 -3 -41 15 -27 17 -90 4 -103 -4 -3 -28 3
-54 15 -36 17 -45 26 -41 42 3 12 0 19 -9 19 -8 0 -18 10 -23 23 -5 12 -19 31
-31 42 -12 11 -26 30 -31 42 -4 12 -31 40 -59 62 -65 51 -102 56 -345 41 -433
-26 -491 -28 -579 -23 -59 3 -100 11 -116 22 -14 9 -34 16 -44 16 -11 0 -21 6
-23 13 -3 7 4 12 17 12 28 0 100 40 100 55 0 6 14 21 31 34 16 12 35 33 41 47
15 32 49 31 106 -2 44 -26 112 -45 203 -58 42 -6 497 17 579 29 19 3 130 12
245 20 283 19 554 43 585 51 14 3 95 10 180 15 85 5 189 13 230 18 41 5 129
11 195 13 66 3 129 9 140 15 11 6 72 11 135 12 63 1 151 6 195 11 44 5 118 12
165 15 83 4 216 15 435 35 61 6 191 17 290 25 99 8 272 24 385 35 113 11 261
25 329 31 68 5 131 14 140 18 9 4 59 9 111 9 52 1 129 7 170 13 41 6 89 11
105 12 37 0 331 25 445 38 47 5 104 9 128 9 23 -1 52 6 64 14 15 11 25 12 34
6 7 -7 43 -7 105 1 135 15 968 93 1114 103 33 3 134 12 225 20 91 9 221 21
290 27 74 7 134 18 147 26 17 11 26 12 43 3 11 -6 25 -8 31 -5 5 4 45 8 87 10
42 2 118 9 167 16 50 7 115 13 145 15 113 6 242 23 256 35 12 9 20 9 38 0 17
-10 37 -10 83 -2 33 6 104 13 159 16 54 3 133 10 174 15 41 5 104 12 140 14
74 5 229 22 340 37 41 5 113 11 160 12 47 2 95 8 107 15 12 6 34 9 50 6 15 -3
66 0 113 6 137 17 181 21 250 23 36 1 68 6 71 11 4 5 49 8 101 7 54 -1 106 3
123 10 27 11 117 24 188 28 15 0 27 -3 27 -9z m-8936 -1072 c2 -7 12 -49 21
-93 10 -44 27 -102 37 -128 32 -84 22 -103 -38 -72 -16 8 -38 15 -48 15 -28 0
-56 29 -56 57 0 13 -7 40 -15 60 -8 19 -15 45 -15 57 0 11 -9 34 -19 50 -32
48 -14 66 65 66 43 0 66 -4 68 -12z m1234 -235 c4 -48 3 -48 -103 -57 -226
-17 -326 -27 -368 -36 -26 -6 -71 -10 -99 -10 -27 0 -98 -8 -155 -17 -102 -16
-106 -16 -119 2 -8 10 -17 34 -20 53 -13 66 -12 66 247 75 129 5 297 14 374
22 77 7 163 12 190 11 l50 -1 3 -42z m-1438 -23 c0 -5 -7 -10 -15 -10 -8 0
-15 5 -15 10 0 6 7 10 15 10 8 0 15 -4 15 -10z"/>
<path d="M6415 15872 c-112 -31 -198 -118 -222 -227 -24 -102 -25 -146 -8
-219 42 -171 129 -255 305 -293 52 -11 83 -11 158 -2 l92 11 0 189 c0 103 -3
190 -7 192 -5 3 -57 6 -118 8 l-110 4 0 -50 0 -50 60 -3 c33 -2 62 -7 65 -12
4 -6 5 -149 1 -182 -1 -5 -30 -8 -65 -8 -126 0 -224 73 -254 190 -22 87 -23
106 -6 170 33 134 90 180 221 180 48 0 89 -6 105 -14 52 -27 71 -24 90 14 9
19 17 40 18 45 1 28 -144 76 -223 74 -23 0 -69 -8 -102 -17z"/>
<path d="M6822 15810 c-28 -45 -6 -96 46 -106 42 -9 77 26 68 69 -9 44 -24 57
-65 57 -25 0 -40 -6 -49 -20z"/>
<path d="M7461 15740 c-4 -3 -8 -154 -9 -337 -1 -249 2 -334 11 -340 6 -4 32
-8 57 -9 25 -2 93 -5 152 -9 l107 -7 7 27 c11 43 -11 54 -136 68 l-115 13 -1
113 c-1 89 2 114 13 118 8 3 53 -2 100 -11 97 -19 113 -14 113 39 0 31 -1 32
-52 39 -29 3 -76 6 -103 6 -28 0 -56 5 -63 12 -17 17 -16 172 1 186 8 7 44 7
110 0 112 -11 127 -8 127 24 0 37 -15 50 -61 54 -156 14 -251 19 -258 14z"/>
<path d="M6833 15637 c-5 -7 -8 -127 -7 -267 l2 -255 39 -7 c72 -13 68 -27 65
254 -3 177 -7 256 -15 264 -19 18 -74 25 -84 11z"/>
<path d="M6979 15618 c-2 -23 2 -43 15 -78 8 -19 22 -62 31 -95 10 -33 23 -78
30 -100 7 -22 20 -67 30 -100 10 -33 26 -82 35 -110 l18 -50 51 -3 c42 -3 52
0 57 15 3 10 11 34 18 53 25 66 38 105 46 135 31 104 41 136 61 185 12 30 24
69 26 87 4 28 2 33 -20 38 -41 11 -71 2 -83 -25 -14 -28 -63 -222 -73 -285 -5
-31 -10 -40 -26 -40 -20 0 -22 4 -44 115 -7 30 -15 73 -20 95 -5 22 -13 53
-20 68 -6 16 -11 39 -11 52 0 13 -10 31 -22 39 -27 19 -97 21 -99 4z"/>
<path d="M7829 15523 c-4 -25 2 -476 6 -483 8 -14 56 -21 69 -11 9 8 11 52 8
174 l-5 163 33 37 c43 49 77 50 119 2 l31 -36 0 -180 0 -180 43 3 42 3 -3 170
c-2 94 -8 190 -14 215 -13 54 -45 91 -100 116 l-40 18 -49 -26 -49 -26 -25 24
c-25 23 -64 33 -66 17z"/>
<path d="M9709 15490 l-41 -39 4 -71 c3 -67 6 -72 45 -111 37 -37 46 -41 92
-42 43 -1 56 4 80 27 16 15 37 45 47 67 15 35 16 45 5 77 -30 86 -83 132 -151
132 -32 0 -47 -7 -81 -40z m139 -38 c2 -7 -3 -12 -12 -12 -10 0 -16 -9 -16
-25 0 -14 -5 -25 -11 -25 -10 0 -4 52 8 73 6 11 26 4 31 -11z m-105 -48 c7
-43 -10 -86 -24 -63 -10 16 -12 83 -2 92 13 14 21 6 26 -29z m147 -40 c0 -38
-3 -45 -17 -42 -22 4 -27 35 -13 72 14 39 30 23 30 -30z m-62 -61 c3 -35 -6
-40 -39 -23 -19 11 -26 40 -12 54 4 4 16 6 28 4 15 -2 21 -12 23 -35z"/>
<path d="M8360 15478 c-43 -12 -75 -41 -103 -93 -30 -55 -31 -241 -3 -295 44
-84 139 -129 244 -117 56 6 69 19 56 54 -9 27 -11 28 -76 24 -82 -4 -128 19
-159 81 -27 53 -23 84 11 80 14 -2 76 -6 139 -9 l114 -5 -7 77 c-9 103 -39
161 -96 190 -38 19 -81 23 -120 13z m97 -90 c34 -38 56 -85 49 -103 -5 -14
-13 -16 -44 -10 -20 5 -63 9 -95 10 -32 1 -60 5 -64 8 -8 8 15 61 39 92 26 34
86 35 115 3z"/>
<path d="M8637 15443 c-2 -5 -3 -114 -3 -243 l1 -235 40 0 40 0 0 167 c0 161
1 167 24 192 13 13 39 28 60 33 33 8 36 12 39 46 3 36 3 37 -33 37 -20 0 -47
-7 -61 -16 -24 -16 -26 -16 -45 5 -19 21 -54 28 -62 14z"/>
<path d="M8934 15416 c-50 -22 -87 -79 -92 -141 -4 -47 -1 -59 27 -100 17 -25
31 -48 31 -51 0 -3 -9 -17 -20 -32 -17 -21 -19 -34 -14 -69 5 -36 3 -48 -14
-66 -40 -44 -45 -65 -28 -111 21 -55 59 -89 120 -110 64 -21 101 -20 152 3 86
39 122 126 85 200 -29 56 -72 81 -139 81 -67 0 -114 23 -110 53 2 17 11 23 38
25 85 6 120 14 142 35 35 31 50 77 46 137 -2 40 1 55 14 63 26 17 45 -7 69
-87 12 -39 28 -86 35 -104 8 -18 14 -41 14 -51 0 -10 7 -32 15 -47 8 -16 15
-37 15 -47 0 -10 6 -33 14 -52 14 -32 13 -35 -20 -82 -18 -26 -50 -56 -70 -66
-31 -16 -35 -22 -29 -45 11 -46 27 -56 67 -39 69 29 116 113 189 342 34 110
45 142 79 228 18 46 20 60 10 72 -16 19 -64 19 -79 1 -9 -11 -52 -168 -77
-284 -4 -18 -8 -21 -18 -13 -13 11 -22 36 -51 151 -9 36 -22 74 -28 85 -6 11
-13 33 -17 50 -8 40 -40 55 -125 55 -38 1 -88 7 -110 15 -49 18 -81 18 -121 1z
m124 -89 c29 -27 30 -100 3 -136 -24 -31 -80 -34 -110 -7 -41 37 -33 151 11
169 22 9 72 -4 96 -26z m4 -389 c44 -13 61 -36 52 -72 -11 -44 -40 -61 -105
-60 -48 1 -64 5 -84 24 -31 29 -35 93 -7 109 23 14 96 14 144 -1z"/>
<path d="M10299 11838 c-11 -22 -40 -59 -63 -82 -106 -103 -226 -240 -226
-257 0 -10 12 -24 28 -31 26 -13 27 -17 30 -95 2 -56 7 -85 18 -93 9 -8 90
-16 235 -23 192 -9 226 -8 253 5 17 8 43 21 59 28 27 13 27 14 27 112 l0 98
35 17 c50 24 57 65 14 78 -35 11 -52 50 -45 103 10 75 -4 87 -97 84 -82 -4
-111 6 -169 57 -54 46 -75 46 -99 -1z m209 -118 c38 0 54 -4 59 -16 10 -28
-16 -39 -105 -44 l-87 -5 -15 -41 c-8 -22 -23 -53 -33 -68 -13 -20 -17 -42
-15 -89 l3 -62 117 0 c121 0 143 -7 136 -41 -3 -17 -16 -19 -123 -22 -143 -3
-163 0 -171 33 -5 22 -12 25 -50 25 -33 0 -46 5 -58 22 -9 12 -16 29 -16 36 0
8 33 49 73 91 72 75 97 114 97 151 0 29 29 41 85 35 28 -2 74 -5 103 -5z m40
-162 c2 -9 -6 -30 -18 -46 -21 -28 -22 -29 -56 -13 -34 15 -47 41 -20 41 8 0
24 9 37 20 28 23 52 22 57 -2z"/>
<path d="M9971 11201 c-28 -28 -29 -115 -3 -149 21 -27 35 -28 362 -33 107 -1
247 -6 310 -10 108 -7 116 -6 138 14 18 17 22 31 22 86 0 36 -4 72 -9 80 -7
11 -76 14 -387 15 -209 1 -387 5 -396 9 -11 6 -23 2 -37 -12z"/>
<path d="M10342 10900 c-15 -22 -48 -69 -74 -105 -58 -78 -61 -101 -13 -121
19 -8 35 -20 35 -27 0 -6 0 -157 0 -334 l-1 -322 23 -5 c13 -3 54 -4 92 -3
l68 2 -1 333 -1 333 35 20 c41 25 43 41 12 83 -13 17 -26 36 -28 41 -13 32
-96 145 -106 145 -7 0 -26 -18 -41 -40z"/>
<path d="M12216 10033 c-9 -26 -16 -57 -16 -70 0 -13 -6 -49 -14 -81 -24 -96
-44 -192 -61 -297 -9 -55 -21 -118 -27 -140 -6 -22 -11 -67 -12 -100 l-1 -60
39 0 39 0 11 55 c7 30 15 61 19 68 8 12 136 98 204 138 31 17 34 17 50 1 23
-23 32 -169 12 -193 -18 -22 -75 -13 -123 20 -62 42 -76 36 -76 -29 0 -50 2
-55 22 -55 12 0 48 -5 80 -12 58 -12 59 -12 84 15 30 32 32 32 58 8 12 -10 33
-21 47 -25 39 -9 51 11 40 65 -5 24 -14 69 -20 99 -6 30 -16 80 -22 110 -5 30
-14 78 -19 105 -9 59 -27 146 -46 232 -8 34 -14 82 -14 105 0 24 -7 53 -15 65
-14 20 -24 22 -119 22 l-104 1 -16 -47z m170 -79 c9 -51 2 -69 -30 -72 -16 -2
-40 -1 -53 3 -23 5 -25 9 -20 48 7 54 37 81 72 65 16 -7 27 -22 31 -44z m5
-210 c10 -11 22 -40 25 -66 6 -46 6 -47 -22 -53 -49 -11 -71 -23 -112 -60 -57
-51 -65 -47 -57 28 7 61 32 184 41 198 6 11 103 -26 125 -47z"/>
<path d="M8193 10050 c-45 -3 -83 -7 -86 -10 -2 -3 -14 -27 -27 -55 -13 -27
-37 -78 -53 -111 -16 -34 -28 -68 -25 -76 5 -11 27 -13 103 -11 102 3 125 11
125 47 0 11 6 32 13 46 8 14 17 41 20 59 4 17 14 39 22 47 18 19 20 60 3 66
-7 2 -50 1 -95 -2z"/>
<path d="M8450 10053 c-107 -5 -108 -5 -115 -68 -4 -30 -11 -58 -16 -61 -5 -3
-9 -15 -9 -28 0 -12 -7 -31 -15 -42 -15 -20 -20 -64 -7 -64 4 -1 70 -2 147 -3
l140 -2 -4 125 c-3 126 -10 152 -40 148 -9 -1 -45 -3 -81 -5z"/>
<path d="M10305 9897 c-26 -8 -58 -29 -91 -64 -44 -44 -53 -59 -59 -102 -15
-113 26 -193 121 -237 99 -45 210 -28 275 43 51 56 59 75 59 145 0 55 -5 76
-25 107 -32 51 -80 87 -141 106 -56 17 -82 17 -139 2z m137 -154 c40 -38 38
-83 -4 -118 -26 -22 -39 -26 -67 -21 -21 3 -44 15 -53 28 -10 13 -22 28 -28
35 -20 24 -10 52 27 78 49 33 89 32 125 -2z"/>
<path d="M9825 9838 c-9 -5 -20 -21 -26 -35 -9 -25 -11 -25 -87 -19 -42 4
-213 8 -379 11 -291 3 -302 4 -323 25 -18 18 -30 20 -108 18 l-87 -3 -3 -122
-3 -123 101 0 c80 0 102 3 106 15 5 13 58 15 390 15 358 0 385 -1 390 -17 17
-56 45 -65 105 -34 22 12 46 21 53 21 8 0 35 9 60 20 l46 19 0 59 c0 69 -10
82 -84 106 -27 9 -54 20 -60 24 -29 18 -75 28 -91 20z"/>
<path d="M10880 9825 c-19 -6 -62 -22 -94 -33 -33 -12 -63 -25 -67 -29 -4 -5
-9 -35 -10 -68 -3 -66 11 -105 40 -105 10 0 50 -14 89 -31 75 -33 102 -33 102
1 0 12 9 23 23 28 12 4 174 6 359 4 l338 -3 6 -25 c9 -37 37 -48 65 -25 13 10
72 41 132 70 59 28 107 54 107 57 0 16 -23 44 -36 44 -9 0 -28 6 -42 14 -15 8
-47 24 -72 36 -25 12 -58 30 -75 40 -41 25 -47 24 -70 -11 l-20 -31 -339 1
c-201 1 -347 6 -358 12 -10 5 -18 20 -18 33 0 31 -18 37 -60 21z"/>
<path d="M7960 9725 c-5 -7 -26 -43 -47 -81 -20 -38 -44 -84 -54 -103 -10 -18
-25 -41 -34 -51 -9 -10 -15 -29 -13 -42 3 -23 3 -23 133 -19 72 2 137 7 145
11 8 5 23 37 33 72 10 35 24 77 31 93 16 36 39 116 34 120 -2 1 -51 5 -111 7
-75 3 -110 1 -117 -7z"/>
<path d="M8260 9715 c-5 -6 -19 -41 -30 -76 -21 -65 -31 -93 -56 -142 -26 -53
-22 -57 69 -57 45 -1 141 -5 212 -10 104 -6 132 -5 140 5 11 14 -6 241 -20
278 -7 16 -22 17 -156 16 -102 -1 -152 -6 -159 -14z m187 -121 c8 -21 -13 -42
-28 -27 -11 11 -59 -4 -59 -19 0 -5 -7 -8 -15 -8 -8 0 -15 5 -15 10 0 6 4 10
8 10 5 0 14 11 20 25 9 20 19 25 47 25 23 0 38 -6 42 -16z"/>
<path d="M10295 9382 c-3 -3 -5 -166 -5 -363 l0 -357 -35 -12 c-46 -15 -45
-37 4 -103 22 -29 45 -63 51 -77 17 -38 35 -68 55 -90 17 -19 20 -19 36 -4 10
9 21 25 25 36 3 11 32 59 65 108 32 48 59 91 59 94 0 3 -18 17 -41 32 l-41 26
3 354 c2 195 2 354 -1 355 -20 4 -171 5 -175 1z"/>
<path d="M8134 9365 c-4 -8 -4 -25 -1 -37 11 -42 -3 -46 -175 -40 -148 5 -162
3 -175 -13 -16 -24 -17 -89 0 -103 8 -7 171 -11 459 -13 359 -3 449 -1 462 10
20 17 21 70 1 98 -15 21 -19 21 -190 16 -191 -7 -212 -2 -200 45 10 41 -10 52
-97 52 -61 0 -80 -3 -84 -15z"/>
<path d="M11915 9238 c-10 -34 -11 -119 -1 -127 6 -5 201 -11 434 -13 l423 -3
-3 75 c-3 68 -5 75 -23 73 -205 -24 -630 -25 -730 -3 -56 13 -95 12 -100 -2z"/>
<path d="M10320 8188 c-45 -34 -87 -70 -94 -80 -16 -26 -32 -22 -56 12 -18 25
-28 30 -65 30 -65 0 -79 -19 -72 -98 8 -80 -4 -99 -104 -172 -38 -28 -73 -58
-76 -66 -7 -19 24 -54 49 -54 20 0 158 107 158 122 0 4 14 8 30 8 25 0 30 -4
30 -23 0 -27 -28 -57 -52 -57 -9 0 -18 -4 -20 -9 -1 -4 -23 -19 -48 -33 l-45
-25 -3 -166 -2 -167 92 -2 c91 -1 130 0 134 5 1 1 5 119 8 261 4 143 10 264
13 269 3 5 19 17 35 27 16 10 56 43 89 74 32 31 66 56 74 56 9 0 51 -30 94
-67 128 -111 174 -148 216 -175 22 -15 56 -41 75 -59 54 -51 79 -62 112 -48
44 18 37 50 -19 96 -26 21 -67 57 -90 79 l-43 42 0 118 c0 66 -4 125 -9 133
-7 10 -26 14 -68 12 -70 -2 -84 -16 -72 -69 20 -86 -1 -83 -99 13 -42 41 -79
75 -83 75 -4 0 -44 -28 -89 -62z"/>
<path d="M10288 7793 c-2 -4 -2 -92 0 -195 l4 -188 32 -6 c18 -3 48 -4 67 -2
l34 3 1 98 c1 53 5 104 8 112 8 22 121 21 130 -1 3 -9 6 -58 6 -110 0 -52 3
-94 8 -95 4 0 52 -1 106 -2 74 -2 103 1 113 12 11 11 14 45 12 158 l-3 145
-37 29 c-20 15 -47 32 -60 37 -32 11 -415 16 -421 5z m377 -153 c-6 -9 -9 -9
-16 1 -10 17 0 34 13 21 6 -6 7 -16 3 -22z"/>
<path d="M9823 7336 c-27 -34 -28 -112 -2 -144 l18 -23 541 0 c399 0 546 3
556 12 15 12 20 135 6 154 -4 6 -185 10 -507 10 -275 0 -521 4 -546 9 -42 8
-47 6 -66 -18z"/>
</g>
</svg>
