<?xml version="1.0" encoding="UTF-8"?>
<svg xmlns="http://www.w3.org/2000/svg" width="1000" height="1000" viewBox="0 0 1000 1000" fill="none">
  <g transform="translate(0, 403)">
    <g transform="scale(4.31)">
      <path d="M33.9289 18.2327C33.7884 28.4522 26.8901 35.7834 17.0799 35.7834C7.26977 35.7834 0 28.4722 0 18.5034C0 8.53464 7.18944 1.23355 16.9695 1.23355C25.1128 1.23355 31.9207 6.34833 33.4269 13.5993H27.7838C26.3579 9.3169 22.1105 6.52885 17.0799 6.52885C10.3323 6.52885 5.57282 11.4731 5.57282 18.5034C5.57282 25.5338 10.2118 30.4881 17.0799 30.4881C22.4017 30.4881 26.7395 27.4794 27.9846 22.9563H16.0859V18.2327H33.9289Z" fill="white"></path>
      <path d="M43.5483 9.43726H38.2566V35.1515H43.5483V9.43726Z" fill="white"></path>
      <path d="M73.752 9.43726L63.1687 35.1515H58.3188L47.4644 9.43726H53.0372L60.7488 28.5124L68.3097 9.43726H73.752Z" fill="white"></path>
      <path d="M43.7993 5.77669C43.0462 5.02452 38.7687 5.02452 38.0156 5.77669C38.7687 5.02452 38.7687 0.752173 38.0156 0C38.7687 0.752173 43.0462 0.752173 43.7993 0C43.0462 0.752173 43.0462 5.02452 43.7993 5.77669Z" fill="white"></path>
      <path d="M96.9269 29.9866V35.1516H77.0154V1.82529H96.4048V6.94006H82.4978V15.6452H95.1597V20.6597H82.4978V29.9866H96.9269Z" fill="#E4FF43"></path>
      <path d="M114.619 8.85559C120.644 8.85559 124.399 13.3385 124.399 19.6668V35.1516H119.108V20.7399C119.108 16.0664 117.069 13.5893 113.204 13.5893C109.338 13.5893 106.285 16.8387 106.285 21.3818V35.1516H100.994V9.43727H104.689L105.713 13.0276C107.661 10.4301 110.844 8.85559 114.619 8.85559Z" fill="#E4FF43"></path>
      <path d="M141.68 13.5893C137.704 13.5893 134.802 15.9862 133.928 19.7972H149.492C148.538 15.8959 145.596 13.5893 141.67 13.5893H141.68ZM154.804 22.3546C154.804 22.9363 154.754 23.5079 154.693 24.0896H133.798C134.461 28.2516 137.463 30.819 141.68 30.819C144.753 30.819 147.243 29.3949 148.609 27.0582H154.181C152.133 32.4838 147.434 35.7834 141.68 35.7834C134.149 35.7834 128.456 29.9866 128.456 22.3044C128.456 14.6222 134.139 8.8255 141.68 8.8255C149.221 8.8255 154.804 14.883 154.804 22.3646V22.3546Z" fill="#E4FF43"></path>
      <path d="M173.219 9.29684V14.2913H170.428C166.05 14.2913 163.871 16.7885 163.871 21.4419V35.1515H158.579V9.43725H162.164L163.058 12.9474C164.895 10.5103 167.426 9.29684 170.94 9.29684H173.229H173.219Z" fill="#E4FF43"></path>
      <path d="M188.201 29.4952C192.779 29.4952 196.103 26.1656 196.103 21.6325C196.103 17.0994 192.799 13.7497 188.201 13.7497C183.602 13.7497 180.268 17.1094 180.268 21.6325C180.268 26.1556 183.612 29.4952 188.201 29.4952ZM201.304 9.43728V31.7818C201.304 39.9855 196.424 44.99 188.462 44.99C181.865 44.99 177.185 41.5701 175.87 35.9238H181.152C182.136 38.7419 185.168 40.2964 188.421 40.2964C192.87 40.2964 196.123 37.368 196.123 32.4939V31.3105C193.894 33.236 190.932 34.3894 187.598 34.3894C180.429 34.3894 174.876 28.8233 174.876 21.6225C174.876 14.4217 180.439 8.80545 187.598 8.80545C191.374 8.80545 194.677 10.2998 196.987 12.7468L197.83 9.42725H201.304V9.43728Z" fill="#E4FF43"></path>
      <path d="M232 9.43726L220.172 35.6129C217.26 42.0816 214.699 44.3682 209.458 44.3682H206.837V39.6044H209.046C212.45 39.6044 213.504 38.6115 215.382 34.4997L215.964 33.2862L204.749 9.43726H210.502L218.686 27.3691L226.367 9.43726H232Z" fill="#E4FF43"></path>
    </g>
  </g>
</svg>
