<?xml version="1.0" encoding="UTF-8"?>
<svg id="Layer_1" data-name="Layer 1" xmlns="http://www.w3.org/2000/svg" viewBox="0 0 1361.49 264.39">
  <defs>
    <style>
      .cls-1 {
        fill: #fff;
      }
    </style>
  </defs>
  <path class="cls-1" d="M199.11,109.15c-.8,60.05-41.33,103.14-98.86,103.14S0,169.32,0,110.76,42.21,9.26,99.61,9.26c47.77,0,87.75,30.06,96.58,72.68h-33.14c-8.39-25.16-33.28-41.58-62.8-41.58-39.59,0-67.56,29.04-67.56,70.39s27.21,70.44,67.56,70.44c31.26,0,56.68-17.66,64-44.29h-69.82v-27.76h104.69Z"/>
  <path class="cls-1" d="M224.54,57.51h31.06v151.1h-31.06V57.51Z"/>
  <path class="cls-1" d="M432.84,57.51l-62.11,151.1h-28.5l-63.71-151.1h32.74l45.26,112.08,44.37-112.08h31.94Z"/>
  <path class="cls-1" d="M568.8,178.23v30.38h-116.82V12.74h113.74v30.1h-81.6v51.15h74.32v29.46h-74.32v54.78h84.68Z"/>
  <path class="cls-1" d="M672.66,54.08c35.33,0,57.39,26.34,57.39,63.55v90.98h-31.06v-84.66c0-27.44-11.94-42.02-34.66-42.02s-40.59,19.09-40.59,45.78v80.9h-31.06V57.51h21.65l6.03,21.08c11.44-15.24,30.09-24.52,52.29-24.52h0Z"/>
  <path class="cls-1" d="M908.47,133.42c0,3.4-.28,6.8-.64,10.2h-122.64c3.88,24.49,21.51,39.54,46.25,39.54,18.05,0,32.67-8.35,40.66-22.12h32.7c-12.03,31.9-39.61,51.25-73.35,51.25-44.17,0-77.63-34.1-77.63-79.23s33.38-79.23,77.63-79.23,77.04,35.61,77.04,79.59h0ZM831.44,81.88c-23.36,0-40.38,14.09-45.47,36.5h91.36c-5.57-22.95-22.87-36.5-45.89-36.5h0Z"/>
  <path class="cls-1" d="M1016.55,56.67v29.34h-16.4c-25.69,0-38.51,14.65-38.51,42.02v80.58h-31.06V57.51h21.01l5.25,20.62c10.81-14.33,25.64-21.46,46.27-21.46h13.43Z"/>
  <path class="cls-1" d="M1181.36,57.51v131.32c0,48.2-28.66,77.62-75.4,77.62-38.7,0-66.17-20.07-73.88-53.25h30.98c5.79,16.58,23.57,25.72,42.67,25.72,26.12,0,45.22-17.21,45.22-45.85v-6.97c-13.1,11.34-30.45,18.07-50.02,18.07-42.05,0-74.67-32.7-74.67-75.03s32.62-75.31,74.67-75.31c22.16,0,41.57,8.78,55.12,23.18l4.94-19.49h20.37ZM1104.45,175.35c26.88,0,46.37-19.57,46.37-46.22s-19.41-46.33-46.37-46.33-46.58,19.77-46.58,46.34,19.61,46.22,46.57,46.22h0Z"/>
  <path class="cls-1" d="M257.03,35.97c-4.43-4.43-29.5-4.43-33.93,0,4.43-4.43,4.43-29.5,0-33.93,4.43,4.43,29.5,4.43,33.93,0-4.43,4.43-4.43,29.5,0,33.93Z"/>
  <path class="cls-1" d="M1361.49,57.51l-69.42,153.84c-17.07,37.99-32.1,51.42-62.89,51.42h-15.36v-27.98h12.96c19.98,0,26.14-5.84,37.2-30.01l3.39-7.12-65.79-140.15h33.78l48.02,105.36,45.05-105.36h33.06Z"/>
</svg>